<svg xmlns="http://www.w3.org/2000/svg" width="12" height="12" viewBox="0 0 12 12">
  <title>
    AddSubfolder
  </title>
  <g fill="none" fill-rule="evenodd">
    <rect width="12" height="12" fill="none" rx="2"/>
    <path fill="#777777" d="M3.309 2c-.073.36.012.747.264 1.05L5.54 5.41c.075.085.075.085.16.16a1.25 1.25 0 0 0 1.76-.16L9.4 3.083A1 1 0 0 1 10 4v3H1V2.5a.5.5 0 0 1 .5-.5h1.809zM0 8h12l-2.707 2.707a1 1 0 0 1-.707.293h-6.05a1 1 0 0 1-.833-.445L0 8z"/>
    <path fill="#777777" d="M6 2H4.534a.25.25 0 0 0-.192.41l1.966 2.36a.25.25 0 0 0 .384 0l1.966-2.36A.25.25 0 0 0 8.466 2H7V.25A.25.25 0 0 0 6.75 0h-.5A.25.25 0 0 0 6 .25V2z"/>
  </g>
</svg>
