<?xml version="1.0" encoding="UTF-8"?>
<svg width="12px" height="12px" viewBox="0 0 12 12" version="1.1" xmlns="http://www.w3.org/2000/svg" xmlns:xlink="http://www.w3.org/1999/xlink">
    <!-- Generator: Sketch 46.2 (44496) - http://www.bohemiancoding.com/sketch -->
    <title>AlertSmall</title>
    <desc>Created with Sketch.</desc>
    <defs></defs>
    <g stroke="none" stroke-width="1" fill="none" fill-rule="evenodd">
        <g>
            <rect fill-opacity="0" fill="#FFFFFF" x="0" y="0" width="12" height="12"></rect>
            <path d="M6,12 C2.6862915,12 0,9.3137085 0,6 C0,2.6862915 2.6862915,0 6,0 C9.3137085,0 12,2.6862915 12,6 C12,9.3137085 9.3137085,12 6,12 Z M6,2 C5.44771525,2 5,2.44771525 5,3 L5,6 C5,6.55228475 5.44771525,7 6,7 C6.55228475,7 7,6.55228475 7,6 L7,3 C7,2.44771525 6.55228475,2 6,2 Z M6,10 C6.55228475,10 7,9.55228475 7,9 C7,8.44771525 6.55228475,8 6,8 C5.44771525,8 5,8.44771525 5,9 C5,9.55228475 5.44771525,10 6,10 Z" fill="#6896ED"></path>
        </g>
    </g>
</svg>