<svg xmlns="http://www.w3.org/2000/svg" width="28" height="28" viewBox="0 0 28 28">
  <title>
    AnimDonutIconActive
  </title>
  <g fill="#6896ED" fill-rule="evenodd">
    <path d="M23.897 5.562l-4.5 3.634a7.225 7.225 0 1 0-.817 10.392l4.549 3.675A12.963 12.963 0 0 1 14 27.005C6.817 27.005.995 21.183.995 14 .995 6.817 6.817.995 14 .995c3.963 0 7.511 1.772 9.897 4.567z"/>
    <path fill-opacity=".6" d="M24.977 7.023A12.944 12.944 0 0 1 27.005 14c0 2.971-.996 5.71-2.673 7.9l-4.5-3.634A7.193 7.193 0 0 0 21.225 14c0-1.19-.287-2.312-.797-3.302l4.55-3.675z"/>
  </g>
</svg>
