<svg xmlns="http://www.w3.org/2000/svg" width="92" height="40" viewBox="0 0 92 40">
  <title>
    AnimLineChart
  </title>
  <defs>
    <linearGradient id="a" x1="0%" y1="91.486%" y2="91.486%">
      <stop offset="0%" stop-color="#68EDC2"/>
      <stop offset="100%" stop-color="#6896ED"/>
    </linearGradient>
  </defs>
  <path fill="url(#a)" d="M9.769 28.714l7.26-3.176a5 5 0 0 1 6.78-5.2l10.04-12.55a5 5 0 1 1 8.302 0l10.04 12.55A4.988 4.988 0 0 1 54 20a4.98 4.98 0 0 1 3.25 1.2l7.91-4.943a5 5 0 1 1 8.992 1.531l10.039 12.55a5 5 0 1 1-2.342 1.875l-10.04-12.55A4.988 4.988 0 0 1 70 20a4.98 4.98 0 0 1-3.25-1.2l-7.91 4.943a5 5 0 1 1-8.992-1.531L39.81 9.662A4.988 4.988 0 0 1 38 10c-.638 0-1.248-.12-1.81-.337l-10.039 12.55a5 5 0 0 1-7.92 6.074l-7.26 3.175a5 5 0 1 1-1.203-2.748zM86 37a2 2 0 1 0 0-4 2 2 0 0 0 0 4zM70 17a2 2 0 1 0 0-4 2 2 0 0 0 0 4zM54 27a2 2 0 1 0 0-4 2 2 0 0 0 0 4zM38 7a2 2 0 1 0 0-4 2 2 0 0 0 0 4zM22 27a2 2 0 1 0 0-4 2 2 0 0 0 0 4zM6 34a2 2 0 1 0 0-4 2 2 0 0 0 0 4z"/>
</svg>
