<svg xmlns="http://www.w3.org/2000/svg" width="48" height="48" viewBox="0 0 48 48">
  <title>
    AnimLiveModeOn
  </title>
  <path fill="#6896ED" fill-rule="evenodd" d="M11.196 39.37C6.798 35.7 4 30.18 4 24.005 4 17.83 6.798 12.309 11.196 8.64l2.56 3.073A15.967 15.967 0 0 0 8 24.005c0 4.94 2.239 9.357 5.757 12.292l-2.561 3.073zm25.608 0l-2.56-3.073A15.967 15.967 0 0 0 40 24.005c0-4.94-2.239-9.357-5.757-12.292l2.561-3.073C41.202 12.309 44 17.83 44 24.005c0 6.175-2.798 11.696-7.196 15.365zm-20.486-6.146A11.975 11.975 0 0 1 12 24.004c0-3.704 1.679-7.017 4.318-9.218l2.56 3.073A7.983 7.983 0 0 0 16 24.005c0 2.47 1.12 4.678 2.878 6.146l-2.56 3.073zm15.364 0l-2.56-3.073A7.983 7.983 0 0 0 32 24.005c0-2.47-1.12-4.679-2.878-6.146l2.56-3.073A11.975 11.975 0 0 1 36 24.005c0 3.705-1.679 7.017-4.318 9.219zM24 28.004a4 4 0 1 1 0-8 4 4 0 0 1 0 8z"/>
</svg>
