<svg xmlns="http://www.w3.org/2000/svg" width="16" height="16" viewBox="0 0 16 16">
  <title>
    BackgroundColor
  </title>
  <g fill="none" fill-rule="evenodd">
    <path fill="#808080" d="M6.327 4.053L4.64 2.293c-.44-.366-1.173-.366-1.613 0-.501.462-.429 1.183 0 1.614l1.76 1.76L2 8.38l4.693 4.693 5.134-5.206-4.62-4.62-.88.806zM3.54 2.738c.306-.284.587.069.587.069l1.76 1.76-.587.513S3.728 3.644 3.54 3.393c-.188-.25-.306-.37 0-.655zm0 5.129L6.327 5.08l.88.88c.073.073.146.073.293.073s.22 0 .293-.073a.452.452 0 0 0-.073-.513l-.88-.88.293-.294L10.8 7.867H3.54zm7.26 4.766c0 .587.513 1.1 1.1 1.1.587 0 1.1-.513 1.1-1.1 0-.586-1.1-4.033-1.1-4.033s-1.1 3.447-1.1 4.033z"/>
    <rect width="12" height="2" x="2" y="14" fill="#B59DFF"/>
  </g>
</svg>
