<svg xmlns="http://www.w3.org/2000/svg" width="24" height="24" viewBox="0 0 24 24" xmlns:xlink="http://www.w3.org/1999/xlink">
  <title>
    EVBorderTop
  </title>
  <defs>
    <rect id="a" width="24" height="24" rx="2"/>
  </defs>
  <g fill="none" fill-rule="evenodd">
    <use fill="#FFFFFF" xlink:href="#a"/>
    <rect width="23" height="23" x=".5" y=".5" stroke="#D7D7D7" rx="2"/>
    <path fill="#EBEBEB" d="M5 11h2v2H5v-2zm3 0h2v2H8v-2zm3 0h2v2h-2v-2zm0-3h2v2h-2V8zm0-3h2v2h-2V5zm0-3h2v2h-2V2zm0 18h2v2h-2v-2zm9-9h2v2h-2v-2zM2 11h2v2H2v-2zm9 3h2v2h-2v-2zm0 3h2v2h-2v-2zm3-6h2v2h-2v-2zm3 0h2v2h-2v-2z"/>
    <rect width="24" height="2" fill="#6896ED"/>
  </g>
</svg>
