<svg xmlns="http://www.w3.org/2000/svg" width="24" height="24" viewBox="0 0 24 24">
  <title>
    ButtonGrab
  </title>
  <g fill="none" fill-rule="evenodd">
    <rect width="24" height="24"/>
    <path fill="#000000" fill-opacity=".4" d="M14.975 19.51l-5.533.976-.33-1.868a1.784 1.784 0 0 0-.117-.112 6.588 6.588 0 0 0-.768-.55c-.17-.109-.355-.22-.553-.334a26.287 26.287 0 0 0-1.738-.918c-.777-.39-1.45-1.292-1.601-2.15l-.626-3.55c-.294-1.664.78-3.259 2.42-3.548l-.126-.717c-.178-1.006.476-1.977 1.482-2.154a2.619 2.619 0 0 1 1.85.36c.204-.139.441-.238.702-.284a2.619 2.619 0 0 1 1.836.353c.186-.133.399-.235.631-.296l.118-.023a2.708 2.708 0 0 1 1.82.401c.204-.138.44-.236.699-.282 1.459-.257 2.84.748 3.1 2.224l.82 4.649c.126.72.02 1.76-.26 2.477a21.134 21.134 0 0 0-.484 1.288c-.052.157-.101.308-.145.453-.158.526-.233.938-.22 1.013l.354 2.005-2.579.455-.508-.686-.244.819zm1.187-1.224l.985-.174-.18-1.02c-.142-.807.913-3.316.913-3.316.201-.518.291-1.374.196-1.916l-.82-4.648c-.166-.94-1.035-1.573-1.941-1.413-.454.08-.754.526-.671.996l.06.34c-.166-.94-1.035-1.572-1.948-1.45a.908.908 0 0 0-.664 1.033l.06.34c-.166-.94-1.035-1.572-1.941-1.412-.454.08-.754.526-.671.996l.06.34c-.166-.94-1.035-1.572-1.942-1.413-.453.08-.753.526-.67.996l.84 4.766-.985.174-.54-3.064c-1.088.192-1.808 1.262-1.61 2.39l.626 3.549c.097.549.573 1.183 1.065 1.43 0 0 3.547 1.69 3.69 2.497l.18 1.02 3.939-.694.637-2.143 1.332 1.796zm-5.328-7.184l.985-.174.694 3.94-.984.173-.695-3.939zm1.97-.347l.984-.174.695 3.94-.985.173-.694-3.94zm1.97-.348l.984-.173.695 3.939-.985.174-.695-3.94z"/>
    <path fill="#FFFFFF" d="M16.162 18.286L14.83 16.49l-.637 2.143-3.94.695-.18-1.021c-.142-.806-3.69-2.497-3.69-2.497-.491-.247-.967-.881-1.064-1.43l-.625-3.55c-.2-1.127.521-2.197 1.609-2.389l.54 3.064.985-.174-.84-4.766c-.083-.47.217-.916.67-.996.907-.16 1.776.473 1.942 1.413l-.06-.34c-.083-.47.217-.916.67-.996.907-.16 1.776.472 1.942 1.412l-.06-.34a.908.908 0 0 1 .664-1.032c.913-.123 1.782.509 1.948 1.449l-.06-.34c-.083-.47.217-.916.67-.996.907-.16 1.776.472 1.942 1.413l.82 4.648c.095.542.005 1.398-.196 1.916 0 0-1.055 2.51-.913 3.315l.18 1.021-.985.174zm-5.328-7.184l.695 3.94.984-.174-.694-3.94-.985.174zm1.97-.347l.694 3.939.985-.174-.695-3.939-.984.174zm1.97-.348l.694 3.94.985-.174-.695-3.94-.985.174z"/>
  </g>
</svg>
