<svg xmlns="http://www.w3.org/2000/svg" width="24" height="24" viewBox="0 0 24 24">
  <title>
    CacheInvalid
  </title>
  <g fill="none" fill-rule="evenodd">
    <path fill="#8B8B8B" d="M12.009 21H12c-5.65 0-8-1.5-8-1.5v-3.761c.358.14.774.284 1.25.422C7.075 16.689 9.317 17 12 17l.293-.001c.134.272.311.529.532.759l.756.784-.736.74A2.914 2.914 0 0 0 12.009 21zm.05-6H12c-5.65 0-8-1.5-8-1.5V9.739c.358.14.774.284 1.25.422C7.075 10.689 9.317 11 12 11s4.926-.31 6.75-.84A14.3 14.3 0 0 0 20 9.74v2.56c-.28.141-.543.33-.777.565l-.723.727-.723-.727a2.99 2.99 0 0 0-4.246-.002l-.67.675A3.004 3.004 0 0 0 12.058 15zM4 5v2.5S6.35 9 12 9s8-1.5 8-1.5V5s-3.375-2-7.964-2C7.448 3 4 5 4 5z"/>
    <path fill="#DA7A7A" d="M20.36 22.697a1.088 1.088 0 0 0 1.46.068l.852-.716a.906.906 0 0 0 .065-1.357l-2.116-2.129 2.113-2.193a1.023 1.023 0 0 0-.013-1.424l-.671-.674a.99.99 0 0 0-1.408.001L18.5 16.43l-2.142-2.156a.99.99 0 0 0-1.408-.001l-.67.674a1.023 1.023 0 0 0-.014 1.424l2.113 2.193-2.116 2.13a.906.906 0 0 0 .065 1.356l.852.716a1.088 1.088 0 0 0 1.46-.068l1.86-1.931 1.86 1.93z"/>
  </g>
</svg>
