<svg xmlns="http://www.w3.org/2000/svg" width="24" height="24" viewBox="0 0 24 24">
  <title>
    CacheUpdating
  </title>
  <g fill="none" fill-rule="evenodd">
    <path fill="#8B8B8B" d="M13.331 20.971C12.91 20.99 12.466 21 12 21c-5.65 0-8-1.5-8-1.5v-3.761c.358.14.774.284 1.25.422C7.075 16.689 9.317 17 12 17c.464 0 .914-.01 1.351-.027A5.99 5.99 0 0 0 13 19c0 .69.117 1.354.331 1.971zm1.306-6.09c-.784.074-1.661.119-2.637.119-5.65 0-8-1.5-8-1.5V9.739c.358.14.774.284 1.25.422C7.075 10.689 9.317 11 12 11s4.926-.31 6.75-.84A14.3 14.3 0 0 0 20 9.74v3.344a5.983 5.983 0 0 0-5.363 1.798zM4 5v2.5S6.35 9 12 9s8-1.5 8-1.5V5s-3.375-2-7.964-2C7.448 3 4 5 4 5z"/>
    <path fill="#76ABD9" d="M19 23a4 4 0 1 0 0-8 4 4 0 0 0 0 8z"/>
  </g>
</svg>
