<svg xmlns="http://www.w3.org/2000/svg" width="24" height="24" viewBox="0 0 24 24">
  <title>
    CacheCancel
  </title>
  <g fill="none" fill-rule="evenodd">
    <path fill="#8B8B8B" d="M13 20.984c-.321.01-.654.016-1 .016-5.65 0-8-1.5-8-1.5v-3.761c.358.14.774.284 1.25.422C7.075 16.689 9.317 17 12 17c.34 0 .674-.005 1-.015v3.999zm.556-6.024c-.488.026-1.006.04-1.556.04-5.65 0-8-1.5-8-1.5V9.739c.358.14.774.284 1.25.422C7.075 10.689 9.317 11 12 11s4.926-.31 6.75-.84A14.3 14.3 0 0 0 20 9.74V13h-3.002a3.991 3.991 0 0 0-3.442 1.96zM4 5v2.5S6.35 9 12 9s8-1.5 8-1.5V5s-3.375-2-7.964-2C7.448 3 4 5 4 5z"/>
    <path fill="#DA7A7A" d="M15 16.998v4.004c0 1.111.895 1.998 1.998 1.998h4.004A1.993 1.993 0 0 0 23 21.002v-4.004A1.993 1.993 0 0 0 21.002 15h-4.004A1.993 1.993 0 0 0 15 16.998z"/>
  </g>
</svg>
