<svg xmlns="http://www.w3.org/2000/svg" width="24" height="24" viewBox="0 0 24 24">
  <title>
    CacheValid
  </title>
  <g fill="none" fill-rule="evenodd">
    <path fill="#8B8B8B" d="M11.683 20.998C6.26 20.944 4 19.5 4 19.5v-3.761c.358.14.774.284 1.25.422 1.78.516 3.959.824 6.558.838a3.052 3.052 0 0 0-.125 4zm5.328-6.472C15.77 14.79 14.117 15 12 15c-5.65 0-8-1.5-8-1.5V9.739c.358.14.774.284 1.25.422C7.075 10.689 9.317 11 12 11s4.926-.31 6.75-.84A14.3 14.3 0 0 0 20 9.74v1.446a2.981 2.981 0 0 0-1.385 1.074l-1.604 2.267zM4 5v2.5S6.35 9 12 9s8-1.5 8-1.5V5s-3.375-2-7.964-2C7.448 3 4 5 4 5z"/>
    <path fill="#5DDB8C" d="M15.397 17.701a1.094 1.094 0 0 0-1.464.025l-.62.593a1.05 1.05 0 0 0-.055 1.445l2.587 2.936c.367.416.943.394 1.276-.035l5.672-7.31a.993.993 0 0 0-.175-1.392l-1.001-.768a.951.951 0 0 0-1.37.22l-3.738 5.281-1.112-.995z"/>
  </g>
</svg>
