<svg xmlns="http://www.w3.org/2000/svg" width="148" height="116" viewBox="0 0 148 116" xmlns:xlink="http://www.w3.org/1999/xlink">
  <title>
    CanvasTutorial
  </title>
  <defs>
    <path id="a" d="M126.943 97.427l-2.188-.66c-1.494-.451-3.195.354-3.801 1.798l.141-.337a.807.807 0 0 0 .353.995l4.209 2.32c.667.368 1.85.687 2.62.7 0 0 4.525-.03 5.22.798l.88 1.05 4.326-3.63-.733-3.071 2.896 1.255 1.082-.907-.88-1.049c-.696-.829-1.254-4.808-1.254-4.808-.125-.759-.625-1.863-1.123-2.456l-3.661-4.364c-.83-.95-2.309-1.043-3.322-.193-.507.426-.589 1.162-.183 1.645l.293.35c-.81-.967-2.289-1.06-3.302-.21-.507.425-.59 1.161-.184 1.644l.294.35c-.811-.966-2.29-1.06-3.303-.21-.506.425-.589 1.161-.183 1.645l.293.35a1.594 1.594 0 0 0-.364-.336l-4.061-4.272a1.513 1.513 0 0 0-2.058-.119 1.408 1.408 0 0 0-.174 1.989l3.63 4.326 4.537 5.407zm6.683-7.45l1.081-.907 3.63 4.326-1.081.907-3.63-4.326zm-2.163 1.815l1.081-.907 3.63 4.326-1.081.907-3.63-4.326zm-2.163 1.815l1.081-.907 3.63 4.326-1.081.907-3.63-4.326z"/>
    <filter id="b" width="200%" height="200%" x="-50%" y="-50%" filterUnits="objectBoundingBox">
      <feMorphology radius="1" operator="dilate" in="SourceAlpha" result="shadowSpreadOuter1"/>
      <feOffset dy="1" in="shadowSpreadOuter1" result="shadowOffsetOuter1"/>
      <feGaussianBlur stdDeviation="1.5" in="shadowOffsetOuter1" result="shadowBlurOuter1"/>
      <feComposite in="shadowBlurOuter1" in2="SourceAlpha" operator="out" result="shadowBlurOuter1"/>
      <feColorMatrix values="0 0 0 0 0 0 0 0 0 0 0 0 0 0 0 0 0 0 0.2 0" in="shadowBlurOuter1"/>
    </filter>
    <mask id="c" width="25.503" height="21.805" x="-1" y="-1">
      <rect width="25.503" height="21.805" x="117.445" y="83.286" fill="white"/>
      <use fill="black" xlink:href="#a"/>
    </mask>
  </defs>
  <g fill="none" fill-rule="evenodd">
    <rect width="106" height="20" x="42" y="72" fill="#B5B5B5"/>
    <path fill="#D8D8D8" d="M0 96h106v20H0V96zm0-48h106v20H0V48zm0-24h106v20H0V24zM0 0h106v20H0V0z"/>
    <use fill="black" filter="url(#b)" xlink:href="#a"/>
    <use fill="#FDFDFD" xlink:href="#a"/>
    <use stroke="#797979" stroke-width="2" mask="url(#c)" xlink:href="#a"/>
  </g>
</svg>
