<svg xmlns="http://www.w3.org/2000/svg" width="40" height="40" viewBox="0 0 40 40">
  <title>
    ChartTypeStackColumn100
  </title>
  <g fill="#6896ED" fill-rule="evenodd">
    <path fill-opacity=".5" d="M7 4h6a1 1 0 0 1 1 1v30a1 1 0 0 1-1 1H7a1 1 0 0 1-1-1V5a1 1 0 0 1 1-1zm10 0h6a1 1 0 0 1 1 1v30a1 1 0 0 1-1 1h-6a1 1 0 0 1-1-1V5a1 1 0 0 1 1-1zm10 0h6a1 1 0 0 1 1 1v30a1 1 0 0 1-1 1h-6a1 1 0 0 1-1-1V5a1 1 0 0 1 1-1z"/>
    <path fill-opacity=".5" d="M7 22h6a1 1 0 0 1 1 1v12a1 1 0 0 1-1 1H7a1 1 0 0 1-1-1V23a1 1 0 0 1 1-1zm10-7h6a1 1 0 0 1 1 1v19a1 1 0 0 1-1 1h-6a1 1 0 0 1-1-1V16a1 1 0 0 1 1-1zm10 3h6a1 1 0 0 1 1 1v16a1 1 0 0 1-1 1h-6a1 1 0 0 1-1-1V19a1 1 0 0 1 1-1z"/>
    <path d="M7 29h6a1 1 0 0 1 1 1v5a1 1 0 0 1-1 1H7a1 1 0 0 1-1-1v-5a1 1 0 0 1 1-1zm10-6h6a1 1 0 0 1 1 1v11a1 1 0 0 1-1 1h-6a1 1 0 0 1-1-1V24a1 1 0 0 1 1-1zm10 3h6a1 1 0 0 1 1 1v8a1 1 0 0 1-1 1h-6a1 1 0 0 1-1-1v-8a1 1 0 0 1 1-1z"/>
  </g>
</svg>
