<svg xmlns="http://www.w3.org/2000/svg" xmlns:xlink="http://www.w3.org/1999/xlink" width="40" height="40" viewBox="0 0 40 40">
  <title>
    ChartTypeZoomLine
  </title>
  <defs>
    <path id="a" d="M6 33a2 2 0 1 1 0-4 2 2 0 0 1 0 4zm8-14a2 2 0 1 1 0-4 2 2 0 0 1 0 4zm14 11a2 2 0 1 1 0-4 2 2 0 0 1 0 4zm8-19a2 2 0 1 1 0-4 2 2 0 0 1 0 4z"/>
  </defs>
  <g fill="none" fill-rule="evenodd">
    <rect width="12" height="34" x="10" y="3" fill="#6896ED" fill-opacity=".15" rx="2"/>
    <polygon fill="#6896ED" fill-opacity=".5" points="27 8 30 14 24 14" transform="rotate(90 27 11)"/>
    <polygon fill="#6896ED" fill-opacity=".5" points="5 8 8 14 2 14" transform="matrix(0 1 1 0 -6 6)"/>
    <polyline stroke="#6896ED" stroke-width="2" points="6 31 14 17 28 28 36 9"/>
    <use fill="#FFFFFF" xlink:href="#a"/>
    <path stroke="#6896ED" d="M6 33.5a2.5 2.5 0 1 1 0-5 2.5 2.5 0 0 1 0 5zm8-14a2.5 2.5 0 1 1 0-5 2.5 2.5 0 0 1 0 5zm14 11a2.5 2.5 0 1 1 0-5 2.5 2.5 0 0 1 0 5zm8-19a2.5 2.5 0 1 1 0-5 2.5 2.5 0 0 1 0 5z"/>
  </g>
</svg>
