<svg xmlns="http://www.w3.org/2000/svg" xmlns:xlink="http://www.w3.org/1999/xlink" width="40" height="40" viewBox="0 0 40 40">
  <title>
    ChartTypeSparkLine
  </title>
  <defs>
    <path id="a" d="M5 27a2 2 0 1 1 0-4 2 2 0 0 1 0 4zm30-6a2 2 0 1 1 0-4 2 2 0 0 1 0 4z"/>
  </defs>
  <g fill="none" fill-rule="evenodd">
    <polyline stroke="#6896ED" stroke-width="2" points="5 25 10 20 15 27 20 13 25 18 30 14 35 19"/>
    <use fill="#FFFFFF" xlink:href="#a"/>
    <path stroke="#6896ED" d="M5 27.5a2.5 2.5 0 1 1 0-5 2.5 2.5 0 0 1 0 5zm30-6a2.5 2.5 0 1 1 0-5 2.5 2.5 0 0 1 0 5z"/>
    <circle cx="20" cy="8" r="2" fill="#6DEF9D"/>
    <circle cx="15" cy="32" r="2" fill="#DA7A7A"/>
  </g>
</svg>
