<svg xmlns="http://www.w3.org/2000/svg" width="40" height="40" viewBox="0 0 40 40">
  <title>
    ChartTypeStackBar100
  </title>
  <g fill="#6896ED" fill-rule="evenodd">
    <path fill-opacity=".5" d="M5 6h30a1 1 0 0 1 1 1v6a1 1 0 0 1-1 1H5a1 1 0 0 1-1-1V7a1 1 0 0 1 1-1zm0 10h30a1 1 0 0 1 1 1v6a1 1 0 0 1-1 1H5a1 1 0 0 1-1-1v-6a1 1 0 0 1 1-1zm0 10h30a1 1 0 0 1 1 1v6a1 1 0 0 1-1 1H5a1 1 0 0 1-1-1v-6a1 1 0 0 1 1-1z"/>
    <path fill-opacity=".5" d="M5 6h13a1 1 0 0 1 1 1v6a1 1 0 0 1-1 1H5a1 1 0 0 1-1-1V7a1 1 0 0 1 1-1zm0 10h19a1 1 0 0 1 1 1v6a1 1 0 0 1-1 1H5a1 1 0 0 1-1-1v-6a1 1 0 0 1 1-1zm0 10h16a1 1 0 0 1 1 1v6a1 1 0 0 1-1 1H5a1 1 0 0 1-1-1v-6a1 1 0 0 1 1-1z"/>
    <path d="M5 6h4a1 1 0 0 1 1 1v6a1 1 0 0 1-1 1H5a1 1 0 0 1-1-1V7a1 1 0 0 1 1-1zm0 10h11a1 1 0 0 1 1 1v6a1 1 0 0 1-1 1H5a1 1 0 0 1-1-1v-6a1 1 0 0 1 1-1zm0 10h8a1 1 0 0 1 1 1v6a1 1 0 0 1-1 1H5a1 1 0 0 1-1-1v-6a1 1 0 0 1 1-1z"/>
  </g>
</svg>
