<svg xmlns="http://www.w3.org/2000/svg" width="120" height="90" viewBox="0 0 120 90">
  <title>
    ChartDataFormatSeriesInColumnsSmall
  </title>
  <g fill="none" fill-rule="evenodd">
    <polygon fill="#C1C1C1" points="48 47 43 44 43 22 8 22 8 69 43 69 43 50"/>
    <rect width="35" height="9" x="8" y="22" fill="#808080"/>
    <rect width="35" height="20" x="77" y="22" fill="#C1C1C1"/>
    <rect width="35" height="9" x="77" y="22" fill="#808080"/>
    <rect width="35" height="20" x="77" y="49" fill="#C1C1C1"/>
    <rect width="35" height="9" x="77" y="49" fill="#808080"/>
    <polygon fill="#6896ed" points="67 62 57 62 57 61 57 48 49 48 49 46 57 46 57 33 57 32 67 32 67 29 75 33 67 37 67 34 59 34 59 60 67 60 67 57 75 61 67 65"/>
  </g>
</svg>
