<svg xmlns="http://www.w3.org/2000/svg" width="40" height="40" viewBox="0 0 40 40">
  <title>
    ChartTypeKPI
  </title>
  <g fill="#6896ED" fill-rule="evenodd">
    <path d="M13.513 17.146h1.278c.609 0 1.06-.152 1.353-.456.294-.304.44-.708.44-1.212a1.87 1.87 0 0 0-.1-.618 1.273 1.273 0 0 0-.302-.49 1.421 1.421 0 0 0-.51-.32 2.038 2.038 0 0 0-.723-.116c-.221 0-.43.032-.627.096a1.627 1.627 0 0 0-.514.27 1.237 1.237 0 0 0-.477.996h-2.4c0-.499.104-.951.312-1.358.207-.407.49-.752.846-1.037a3.979 3.979 0 0 1 1.258-.664A4.93 4.93 0 0 1 14.89 12a5.91 5.91 0 0 1 1.664.22c.501.147.931.365 1.29.656.36.29.64.65.84 1.079.199.429.298.925.298 1.49a2.6 2.6 0 0 1-.477 1.49 3.35 3.35 0 0 1-1.357 1.108c.68.243 1.188.609 1.523 1.096.335.487.502 1.062.502 1.726 0 .565-.11 1.068-.328 1.511a3.22 3.22 0 0 1-.9 1.116 4.05 4.05 0 0 1-1.358.69 5.854 5.854 0 0 1-1.697.236 5.56 5.56 0 0 1-1.51-.208 3.961 3.961 0 0 1-1.317-.639 3.29 3.29 0 0 1-.93-1.083c-.234-.434-.352-.95-.352-1.548h2.399c0 .227.044.434.133.622.088.189.211.35.37.486.157.136.344.242.56.32.215.077.45.116.705.116.282 0 .537-.039.764-.116.227-.078.419-.19.577-.337.157-.146.278-.32.36-.522.084-.202.125-.428.125-.677 0-.32-.046-.596-.137-.826a1.381 1.381 0 0 0-.394-.56 1.658 1.658 0 0 0-.627-.32 3.052 3.052 0 0 0-.826-.104h-1.278v-1.876zm13.82-5.104v1.975h-.14c-.57 0-1.082.073-1.536.22a3.536 3.536 0 0 0-1.175.627c-.329.27-.594.6-.796.988a3.969 3.969 0 0 0-.403 1.303 3.354 3.354 0 0 1 1.05-.718c.407-.18.87-.27 1.39-.27.57 0 1.07.11 1.499.328.429.218.787.515 1.075.888.287.374.503.808.647 1.303.144.496.216 1.023.216 1.582 0 .586-.096 1.133-.286 1.639-.191.506-.464.945-.818 1.316-.354.37-.782.662-1.283.875-.5.213-1.06.32-1.68.32a4.262 4.262 0 0 1-1.76-.353 3.818 3.818 0 0 1-1.34-.988 4.519 4.519 0 0 1-.856-1.519 5.972 5.972 0 0 1-.303-1.946v-.93c0-.974.139-1.868.415-2.681a5.997 5.997 0 0 1 1.204-2.1 5.417 5.417 0 0 1 1.934-1.37c.764-.326 1.632-.49 2.606-.49h.34zm-2.34 6.05a1.888 1.888 0 0 0-1.49.685 1.814 1.814 0 0 0-.27.428v.722c0 .426.044.8.133 1.12.089.322.212.589.37.802a1.5 1.5 0 0 0 .572.477c.224.105.47.158.735.158.26 0 .496-.055.71-.166.212-.11.394-.263.543-.457.15-.193.266-.424.349-.693.083-.268.124-.56.124-.876 0-.32-.04-.615-.12-.884a2.07 2.07 0 0 0-.353-.697 1.62 1.62 0 0 0-.56-.456 1.656 1.656 0 0 0-.743-.162z"/>
    <path fill-opacity=".5" d="M3 27.252h18v2H3v-2zm20 0h5v2h-5v-2zm7 0h7v2h-7v-2z"/>
  </g>
</svg>
