<svg xmlns="http://www.w3.org/2000/svg" width="120" height="90" viewBox="0 0 120 90">
  <title>
    ChartDataFormatLegacySmall
  </title>
  <g fill="none" fill-rule="evenodd">
    <rect width="16" height="38.011" x="19" y="31" fill="#C1C1C1"/>
    <rect width="16" height="9" x="19" y="22" fill="#808080"/>
    <rect width="16" height="38.011" x="41" y="31" fill="#C1C1C1"/>
    <rect width="16" height="9" x="41" y="22" fill="#808080"/>
    <rect width="16" height="38.011" x="63" y="31" fill="#C1C1C1"/>
    <rect width="16" height="9" x="63" y="22" fill="#808080"/>
    <rect width="16" height="38.011" x="85" y="31" fill="#C1C1C1"/>
    <rect width="16" height="9" x="85" y="22" fill="#808080"/>
    <polygon fill="#6896ed" points="83 20 101 20 101 18 19 18 19 20 37 20 37 71 34 71 38 79 42 71 39 71 39 20 59 20 59 71 56 71 60 79 64 71 61 71 61 20 81 20 81 71 78 71 82 79 86 71 83 71"/>
  </g>
</svg>
