<svg xmlns="http://www.w3.org/2000/svg" width="30" height="20" viewBox="0 0 30 20">
  <title>
    ClearBtn
  </title>
  <g fill="none" fill-rule="evenodd">
    <path fill="#D9D9D9" d="M15.121 1.99c-5.293 0-9.856 2.986-11.951 7.293a.473.473 0 0 0 0 .416c2.095 4.307 6.658 7.292 11.951 7.292 5.294 0 9.856-2.985 11.952-7.292a.473.473 0 0 0 0-.416C24.977 4.976 20.415 1.99 15.121 1.99zM15 15c-3.316 0-6-2.463-6-5.5C9 6.46 11.687 4 15 4c3.316 0 6 2.463 6 5.5S18.313 15 15 15z"/>
    <ellipse cx="15" cy="9.5" fill="#D9D9D9" rx="3.5" ry="3.5"/>
    <polygon fill="#D76A6A" points="0 18.38 1.055 20 30 1.62 28.945 0"/>
  </g>
</svg>
