<svg xmlns="http://www.w3.org/2000/svg" width="12" height="12" viewBox="0 0 12 12">
  <title>
    ColumnDataSelected
  </title>
  <g fill="#FFFFFF" fill-rule="evenodd">
    <path d="M0 1.002C0 .45.456 0 1.002 0h9.996C11.55 0 12 .456 12 1.002v9.996C12 11.55 11.544 12 10.998 12H1.002A1.007 1.007 0 0 1 0 10.998V1.002zm1 2.995v6.006a1 1 0 0 0 .995.997h8.01c.54 0 .995-.446.995-.997V3.997A1 1 0 0 0 10.005 3h-8.01C1.455 3 1 3.446 1 3.997z"/>
    <rect width="10" height="8" x="1" y="3" fill-opacity=".25"/>
    <rect width="2" height="6" x="2" y="4"/>
    <rect width="2" height="6" x="5" y="4" fill-opacity=".5"/>
    <rect width="2" height="6" x="8" y="4" fill-opacity=".5"/>
  </g>
</svg>
