<svg xmlns="http://www.w3.org/2000/svg" width="8" height="8" viewBox="0 0 8 8">
  <title>
    CompletionFunction
  </title>
  <path fill="#FFFFFF" fill-rule="evenodd" d="M2.014 0c.53 0 .95.078 1.26.233.31.155.543.372.697.652L6.99 6.25c.043.071.088.14.134.207a.899.899 0 0 0 .159.176.67.67 0 0 0 .458.169h.126c.041 0 .081-.002.12-.005L8 7.964A6.937 6.937 0 0 1 7.206 8c-.299 0-.561-.025-.787-.074a2.162 2.162 0 0 1-.596-.218 1.659 1.659 0 0 1-.444-.358 2.289 2.289 0 0 1-.325-.49L3.848 4.516l-1.595 3.39H0l2.765-5.406-.52-.844a.816.816 0 0 0-.368-.358 1.356 1.356 0 0 0-.563-.102c-.067 0-.133 0-.198.002a3.915 3.915 0 0 0-.22.013L.851.112a3.45 3.45 0 0 1 .26-.046A6.88 6.88 0 0 1 2.014 0z"/>
</svg>
