<svg xmlns="http://www.w3.org/2000/svg" width="16" height="16" viewBox="0 0 16 16">
  <title>
    ConditionalFormatNotice
  </title>
  <defs>
    <linearGradient id="a" x1="67.351%" x2="21.206%" y1="35.602%" y2="83.023%">
      <stop stop-color="#9F8CDA" offset="0%"/>
      <stop stop-color="#5EA3F7" offset="100%"/>
    </linearGradient>
  </defs>
  <g fill="none" fill-rule="evenodd">
    <rect width="16" height="16" fill="url(#a)"/>
    <path fill="#FFFFFF" d="M1 1h14v14H1V1zm5.157 9.16L5.05 12.083c-.11.217-.181.413-.214.589a.942.942 0 0 0 .012.404c.035.14.142.271.321.391.18.12.444.19.794.207l.08.325H2.486l.007-.325c.304-.053.557-.164.761-.334.27-.235.622-.718 1.056-1.45L10.258 1.81h.396l2.02 9.755c.11.51.177.818.203.923.099.399.251.689.457.87.206.182.5.288.883.317L14.21 14H9.05l.017-.325c.498-.047.78-.088.848-.123.144-.082.25-.254.32-.514.071-.261.04-.714-.09-1.358l-.297-1.52H6.157zm2.779-4.606L6.584 9.438H9.67l-.733-3.884z"/>
  </g>
</svg>
