<svg xmlns="http://www.w3.org/2000/svg" width="24" height="16" viewBox="0 0 24 16">
  <title>
    CrossTabDesignMenu
  </title>
  <g fill="none" fill-rule="evenodd">
    <polygon fill="#777777" points="22 11 19.5 14 17 11"/>
    <path fill="#6896ED" d="M2.5 2h11a.5.5 0 0 1 .5.5v3a.5.5 0 0 1-.5.5h-11a.5.5 0 0 1-.5-.5v-3a.5.5 0 0 1 .5-.5zm0 5h3a.5.5 0 0 1 .5.5v6a.5.5 0 0 1-.5.5h-3a.5.5 0 0 1-.5-.5v-6a.5.5 0 0 1 .5-.5zm5 0h6a.5.5 0 0 1 .5.5v2a.5.5 0 0 1-.5.5h-6a.5.5 0 0 1-.5-.5v-2a.5.5 0 0 1 .5-.5zm0 4h6a.5.5 0 0 1 .5.5v2a.5.5 0 0 1-.5.5h-6a.5.5 0 0 1-.5-.5v-2a.5.5 0 0 1 .5-.5z"/>
  </g>
</svg>
