<svg xmlns="http://www.w3.org/2000/svg" width="12" height="12" viewBox="0 0 12 12">
  <title>
    Cut
  </title>
  <g fill="none" fill-rule="evenodd">
    <rect width="12" height="12" rx="2"/>
    <path fill="#666666" d="M5.198 8.977a1.888 1.888 0 0 0-.154-.772L6.31 6.998l2.227 2.124c.407.388 1.21.696 1.794.688l.118-.002c.584-.007.726-.326.317-.712L7.418 5.941l3.199-3.049c.415-.396.278-.705-.307-.69l-.08.002c-.585.015-1.395.347-1.81.743l-2.078 1.98-1.246-1.174c.106-.238.167-.499.17-.772.012-1.106-.917-1.993-2.077-1.98-1.16.01-2.109.916-2.121 2.022-.013 1.106.917 1.994 2.076 1.982.312-.003.608-.073.876-.192L5.24 5.978l-1.25 1.19a2.14 2.14 0 0 0-.869-.173c-1.16.012-2.11.918-2.122 2.023-.012 1.106.917 1.993 2.077 1.982 1.16-.012 2.109-.918 2.121-2.023zm-3.08-5.969c.005-.554.48-1.007 1.06-1.012.582-.004 1.048.441 1.043.995-.005.554-.48 1.007-1.06 1.012-.581.004-1.048-.44-1.043-.995zM2.05 9.003c.006-.554.48-1.007 1.062-1.012.58-.004 1.047.44 1.042.995-.005.554-.48 1.007-1.061 1.012-.58.004-1.047-.441-1.043-.995z"/>
  </g>
</svg>
