<svg xmlns="http://www.w3.org/2000/svg" width="92" height="57" viewBox="0 0 92 57">
  <title>
    CanvasTutorialDashboard
  </title>
  <g fill="none" fill-rule="evenodd">
    <rect width="134" height="87" x="-41" y="-4" fill="none"/>
    <rect width="60" height="19" x="30" y="29" fill="#DADADA" rx="2"/>
    <path fill="#797979" d="M78.618 55H73v-1.898a1.784 1.784 0 0 0-.097-.13 6.588 6.588 0 0 0-.66-.676 16.029 16.029 0 0 0-.487-.424 26.287 26.287 0 0 0-1.553-1.206C69.506 50.148 69 49.142 69 48.27v-3.603c0-1.69 1.335-3.074 3-3.074v-.729c0-1.021.812-1.864 1.834-1.864.675 0 1.29.256 1.758.677.226-.102.477-.158.742-.158.67 0 1.28.251 1.747.666.206-.1.433-.163.672-.182l.12-.002a2.708 2.708 0 0 1 1.723.71c.225-.1.475-.155.737-.155 1.482 0 2.667 1.229 2.667 2.728v4.72c0 .731-.286 1.737-.685 2.395a21.134 21.134 0 0 0-.7 1.184c-.08.146-.154.287-.222.421-.247.49-.393.883-.393.96V55h-2.618L79 54.236l-.382.764z"/>
    <path fill="#FFFFFF" d="M80 54h1v-1.037c0-.818 1.475-3.106 1.475-3.106.288-.476.525-1.303.525-1.853v-4.72c0-.955-.746-1.728-1.666-1.728-.461 0-.834.386-.834.864v.345c0-.954-.746-1.728-1.666-1.765a.908.908 0 0 0-.834.901v.346c0-.955-.746-1.728-1.666-1.728-.461 0-.834.386-.834.864v.345c0-.954-.746-1.728-1.666-1.728-.461 0-.834.387-.834.864v4.84h-1v-3.111c-1.105 0-2 .928-2 2.074v3.603c0 .558.358 1.265.8 1.593 0 0 3.2 2.282 3.2 3.1V54h4l1-2 1 2z"/>
    <path fill="#797979" d="M76 46h1v4h-1v-4zm2 0h1v4h-1v-4zm2 0h1v4h-1v-4z"/>
    <path fill="#B4B4B4" fill-rule="nonzero" d="M17.996 44.885a2.125 2.125 0 0 1-1.238-1.06 2.031 2.031 0 0 1-.097-1.6l1.797-5.067C9.641 33.108-1.094 24.49 2.835 3.98L3.537 2c1.047 19.902 13.548 21.365 19.101 23.374l1.748-4.928a2.147 2.147 0 0 1 1.906-1.412 2.161 2.161 0 0 1 2.068 1.174l7.392 14.48a2.27 2.27 0 0 1-1.009 3.06c-.013.008-5.047 2.354-15.102 7.04a2.204 2.204 0 0 1-1.645.097z"/>
  </g>
</svg>
