<svg xmlns="http://www.w3.org/2000/svg" width="24" height="24" viewBox="0 0 24 24">
  <title>
    DecorationNormal
  </title>
  <g fill="none" fill-rule="evenodd">
    <rect width="24" height="24"/>
    <path fill="#777777" d="M10.113 14.848h-3.58L5.783 17H4.115l3.491-9.242h1.441L12.544 17h-1.676l-.755-2.152zm-3.13-1.295h2.68L8.322 9.72l-1.34 3.834zM17.546 17a1.28 1.28 0 0 1-.105-.286 4.559 4.559 0 0 1-.073-.355 2.74 2.74 0 0 1-.34.298 2.33 2.33 0 0 1-.9.41c-.176.04-.364.06-.563.06-.342 0-.658-.052-.945-.156a2.22 2.22 0 0 1-.74-.431 2 2 0 0 1-.482-.65 1.9 1.9 0 0 1-.175-.813c0-.369.07-.694.21-.978.14-.283.342-.52.609-.71.267-.191.593-.336.98-.436.388-.1.83-.149 1.324-.149h.971v-.45c0-.356-.1-.64-.298-.854-.199-.214-.501-.32-.908-.32a1.58 1.58 0 0 0-.495.072 1.203 1.203 0 0 0-.377.197.873.873 0 0 0-.242.295.812.812 0 0 0-.085.368h-1.543c0-.27.067-.532.2-.784.133-.251.323-.476.568-.672.246-.197.543-.355.892-.473a3.63 3.63 0 0 1 1.171-.178c.385 0 .74.05 1.067.15.325.098.607.247.844.443a2 2 0 0 1 .552.737c.131.294.197.638.197 1.031v3.047c0 .618.087 1.11.26 1.48V17h-1.574zm-1.695-1.11c.178 0 .344-.024.498-.07.155-.047.294-.109.42-.185a1.551 1.551 0 0 0 .548-.565v-1.295h-.831c-.571 0-1.001.1-1.289.299-.287.199-.431.48-.431.844 0 .14.023.269.07.387a.83.83 0 0 0 .209.308.988.988 0 0 0 .34.203c.133.049.288.073.466.073z"/>
  </g>
</svg>
