<svg xmlns="http://www.w3.org/2000/svg" width="24" height="24" viewBox="0 0 24 24">
  <title>
    DecorationUnderlineSelected
  </title>
  <g fill="none" fill-rule="evenodd">
    <rect width="24" height="24"/>
    <rect width="16" height="1" x="4" y="17" fill="#FFFFFF"/>
    <path fill="#FFFFFF" d="M10.113 14.09h-3.58l-.75 2.152H4.115L7.605 7h1.441l3.498 9.242h-1.676l-.755-2.152zm-3.13-1.295h2.68l-1.34-3.834-1.34 3.834zm10.563 3.447a1.28 1.28 0 0 1-.105-.285 4.559 4.559 0 0 1-.073-.356 2.74 2.74 0 0 1-.34.298 2.33 2.33 0 0 1-.9.41c-.176.04-.364.06-.563.06-.342 0-.658-.052-.945-.155a2.22 2.22 0 0 1-.74-.432 2 2 0 0 1-.482-.65 1.9 1.9 0 0 1-.175-.813c0-.368.07-.694.21-.978.14-.283.342-.52.609-.71.267-.191.593-.336.98-.435.388-.1.83-.15 1.324-.15h.971v-.45c0-.356-.1-.64-.298-.854-.199-.214-.501-.32-.908-.32a1.58 1.58 0 0 0-.495.072 1.203 1.203 0 0 0-.377.197.873.873 0 0 0-.242.295.812.812 0 0 0-.085.368h-1.543c0-.27.067-.532.2-.783.133-.252.323-.477.568-.673.246-.197.543-.355.892-.473a3.63 3.63 0 0 1 1.171-.178c.385 0 .74.05 1.067.15.325.099.607.247.844.444a2 2 0 0 1 .552.736c.131.294.197.638.197 1.031v3.047c0 .618.087 1.111.26 1.48v.107h-1.574zm-1.695-1.11c.178 0 .344-.024.498-.07.155-.047.294-.108.42-.185a1.551 1.551 0 0 0 .548-.565v-1.294h-.831c-.571 0-1.001.099-1.289.298-.287.199-.431.48-.431.844 0 .14.023.269.07.387a.83.83 0 0 0 .209.308.988.988 0 0 0 .34.203c.133.049.288.073.466.073z"/>
  </g>
</svg>
