<svg xmlns="http://www.w3.org/2000/svg" width="16" height="16" viewBox="0 0 16 16">
  <title>
    DeleteRow
  </title>
  <g fill="none" fill-rule="evenodd">
    <rect width="14" height="14" x="1" y="1" fill="#B3B3B3"/>
    <rect width="12" height="12" x="2" y="2" fill="#FFFFFF"/>
    <polygon fill="#808080" points="0 6 3 6 5 8 3 10 0 10"/>
    <polygon fill="#DEDEDE" points="1 7 2.5 7 3.5 8 2.5 9 1 9"/>
    <polygon fill="#808080" points="11 6 14 6 16 8 14 10 11 10" transform="matrix(-1 0 0 1 27 0)"/>
    <polygon fill="#DEDEDE" points="12.5 7 14 7 15 8 14 9 12.5 9" transform="matrix(-1 0 0 1 27.5 0)"/>
    <polygon fill="#D76A6A" points="9.6 8 12 5.6 10.4 4 8 6.4 5.6 4 4 5.6 6.4 8 4 10.4 5.6 12 8 9.6 10.4 12 12 10.4 9.6 8"/>
  </g>
</svg>
