<svg xmlns="http://www.w3.org/2000/svg" width="12" height="12" viewBox="0 0 12 12">
  <title>
    Detail
  </title>
  <g fill="none" fill-rule="evenodd">
    <rect width="12" height="12" rx="2"/>
    <path fill="#777777" d="M1 0h10a1 1 0 0 1 1 1v10a1 1 0 0 1-1 1H1a1 1 0 0 1-1-1V1a1 1 0 0 1 1-1z"/>
    <rect width="10" height="10" x="1" y="1" fill="#FFFFFF" rx=".25"/>
    <path fill="#666666" fill-opacity=".5" d="M2.5 3h7a.5.5 0 0 1 0 1h-7a.5.5 0 0 1 0-1zm0 2h7a.5.5 0 0 1 0 1h-7a.5.5 0 0 1 0-1zm0 2h4a.5.5 0 0 1 0 1h-4a.5.5 0 0 1 0-1z"/>
  </g>
</svg>
