<svg xmlns="http://www.w3.org/2000/svg" width="12" height="12" viewBox="0 0 12 12">
  <title>
    DiscoveryObjectInfoNeeded
  </title>
  <g fill="none" fill-rule="evenodd">
    <circle cx="6" cy="6" r="6" fill="#777777"/>
    <path fill="#FFFFFF" d="M5.13 9.282c0-.113.02-.217.06-.313a.732.732 0 0 1 .427-.415.918.918 0 0 1 .344-.061c.126 0 .24.02.343.061a.732.732 0 0 1 .428.415c.04.096.06.2.06.313 0 .11-.02.212-.06.308a.732.732 0 0 1-.428.413.953.953 0 0 1-.343.059.953.953 0 0 1-.344-.06.732.732 0 0 1-.428-.413.802.802 0 0 1-.059-.307zM5.97 2.5c1.91 0 2.53 1.245 2.53 2.053 0 2.032-1.677 1.755-1.85 3.043V8H5.278v-.479c.143-1.84 1.657-1.67 1.626-2.819 0-.649-.325-.957-.863-.957-.732 0-1.047.627-1.047 1.383H3.5C3.53 3.606 4.476 2.5 5.97 2.5z"/>
  </g>
</svg>
