<svg xmlns="http://www.w3.org/2000/svg" width="200" height="167" viewBox="0 0 200 167">
  <title>
    DragnDropLabel
  </title>
  <g fill="none" fill-rule="evenodd">
    <rect width="200" height="167" fill="none"/>
    <path fill="#DCDCDC" d="M132 36h10a2 2 0 0 1 2 2v91a2 2 0 0 1-2 2h-10a2 2 0 0 1-2-2V38a2 2 0 0 1 2-2zm-22 39h10a2 2 0 0 1 2 2v52a2 2 0 0 1-2 2h-10a2 2 0 0 1-2-2V77a2 2 0 0 1 2-2zM88 58h10a2 2 0 0 1 2 2v69a2 2 0 0 1-2 2H88a2 2 0 0 1-2-2V60a2 2 0 0 1 2-2zM66 86h10a2 2 0 0 1 2 2v41a2 2 0 0 1-2 2H66a2 2 0 0 1-2-2V88a2 2 0 0 1 2-2z"/>
    <polygon fill="#DCDCDC" points="49.994 39 50 145 44 145 44 39"/>
    <rect width="109" height="6" x="44" y="139" fill="#6896ED"/>
    <path fill="#6896ED" fill-rule="nonzero" d="M25.133 153.747a1.754 1.754 0 0 1-1.264-.512 1.754 1.754 0 0 1-.512-1.264l.039-4.584A15.785 15.785 0 0 1 9.2 131.492l.015-1.79c3.97 6.097 9.345 6.941 14.27 7.023l.038-4.458a1.827 1.827 0 0 1 1.118-1.667 1.774 1.774 0 0 1 1.95.375l11.178 11.023-11.366 11.215c-.339.34-.796.531-1.27.534z"/>
  </g>
</svg>
