<svg xmlns="http://www.w3.org/2000/svg" width="200" height="167" viewBox="0 0 200 167">
  <title>
    DragnDropValue
  </title>
  <g fill="none" fill-rule="evenodd">
    <rect width="200" height="167" fill="none"/>
    <path fill="#6896ED" d="M132 36h10a2 2 0 0 1 2 2v91a2 2 0 0 1-2 2h-10a2 2 0 0 1-2-2V38a2 2 0 0 1 2-2zm-22 39h10a2 2 0 0 1 2 2v52a2 2 0 0 1-2 2h-10a2 2 0 0 1-2-2V77a2 2 0 0 1 2-2zM88 58h10a2 2 0 0 1 2 2v69a2 2 0 0 1-2 2H88a2 2 0 0 1-2-2V60a2 2 0 0 1 2-2zM66 86h10a2 2 0 0 1 2 2v41a2 2 0 0 1-2 2H66a2 2 0 0 1-2-2V88a2 2 0 0 1 2-2z"/>
    <rect width="109" height="4" x="44" y="139" fill="#DCDCDC"/>
    <polygon fill="#6896ED" points="49.994 39 50 143 44 143 44 39"/>
    <path fill="#6896ED" fill-rule="nonzero" d="M149.63 12.534a1.761 1.761 0 0 1 1.261-.534c.474 0 .928.192 1.261.534l3.227 3.282a15.847 15.847 0 0 1 21.36 1.206L178 18.305c-7.147-1.51-11.562 1.705-15.117 5.143l3.139 3.192c.511.518.665 1.3.389 1.978a1.781 1.781 0 0 1-1.65 1.118l-15.761.11.107-16.03c0-.482.188-.943.523-1.282z"/>
  </g>
</svg>
