<?xml version="1.0" encoding="UTF-8"?>
<svg width="24px" height="24px" viewBox="0 0 24 24" version="1.1" xmlns="http://www.w3.org/2000/svg" xmlns:xlink="http://www.w3.org/1999/xlink">
    <!-- Generator: sketchtool 51.1 (57501) - http://www.bohemiancoding.com/sketch -->
    <title>8DAD8C85-596B-4222-ACFC-0A40BACBC55C-496-0000E8D4C3E27F04</title>
    <desc>Created with sketchtool.</desc>
    <defs>
        <filter x="-0.7%" y="-1.3%" width="101.5%" height="104.0%" filterUnits="objectBoundingBox" id="filter-1">
            <feOffset dx="0" dy="2" in="SourceAlpha" result="shadowOffsetOuter1"></feOffset>
            <feGaussianBlur stdDeviation="1.5" in="shadowOffsetOuter1" result="shadowBlurOuter1"></feGaussianBlur>
            <feColorMatrix values="0 0 0 0 0   0 0 0 0 0   0 0 0 0 0  0 0 0 0.05 0" type="matrix" in="shadowBlurOuter1" result="shadowMatrixOuter1"></feColorMatrix>
            <feMerge>
                <feMergeNode in="shadowMatrixOuter1"></feMergeNode>
                <feMergeNode in="SourceGraphic"></feMergeNode>
            </feMerge>
        </filter>
        <polygon id="path-2" points="0 0 219 0 219 179 0 179"></polygon>
        <rect id="path-4" x="0" y="0" width="259" height="117" rx="3"></rect>
        <filter x="-2.5%" y="-3.8%" width="105.0%" height="111.1%" filterUnits="objectBoundingBox" id="filter-5">
            <feMorphology radius="1" operator="dilate" in="SourceAlpha" result="shadowSpreadOuter1"></feMorphology>
            <feOffset dx="0" dy="2" in="shadowSpreadOuter1" result="shadowOffsetOuter1"></feOffset>
            <feGaussianBlur stdDeviation="1.5" in="shadowOffsetOuter1" result="shadowBlurOuter1"></feGaussianBlur>
            <feComposite in="shadowBlurOuter1" in2="SourceAlpha" operator="out" result="shadowBlurOuter1"></feComposite>
            <feColorMatrix values="0 0 0 0 0   0 0 0 0 0   0 0 0 0 0  0 0 0 0.1 0" type="matrix" in="shadowBlurOuter1"></feColorMatrix>
        </filter>
    </defs>
    <g id="EX-10464-Format-Toolbar" stroke="none" stroke-width="1" fill="none" fill-rule="evenodd">
        <g id="Format-Menu-1" transform="translate(-334.000000, -152.000000)">
            <rect fill="#EFEFEF" x="0" y="0" width="410" height="369"></rect>
            <g id="Block-1" filter="url(#filter-1)" transform="translate(9.000000, 8.000000)">
                <g id="Name-Column" transform="translate(280.000000, 48.000000)">
                    <g id="rows" transform="translate(0.000000, 24.000000)">
                        <path d="M0,0 L232,0 L232,178.009302 C232,179.108734 231.113205,180 229.994347,180 L2.00565338,180 C0.897961605,180 0,179.095548 0,178.009302 L0,0 Z" id="white-row" fill="#FFFFFF"></path>
                        <path d="M0,0 L232,0 L232,20 L0,20 L0,0 Z M0,40 L232,40 L232,60 L0,60 L0,40 Z M0,80 L232,80 L232,100 L0,100 L0,80 Z M0,120 L232,120 L232,140 L0,140 L0,120 Z M0,160 L232,160 L232,180 L0,180 L0,160 Z" id="Combined-Shape" fill="#F1F1F1"></path>
                    </g>
                    <g id="Text" transform="translate(5.000000, 25.000000)">
                        <mask id="mask-3" fill="white">
                            <use xlink:href="#path-2"></use>
                        </mask>
                        <g id="Duplicate-control"></g>
                        <text id="Rhoda-Gibson" mask="url(#mask-3)" font-family="Roboto-Regular, Roboto" font-size="13" font-weight="normal" line-spacing="20" fill="#808080">
                            <tspan x="0" y="71.6666667">Rhoda Gibson</tspan>
                        </text>
                        <text id="Tommy-Ryan" mask="url(#mask-3)" font-family="Roboto-Regular, Roboto" font-size="13" font-weight="normal" line-spacing="20" fill="#808080">
                            <tspan x="0" y="91.5555556">Tommy Ryan</tspan>
                        </text>
                    </g>
                </g>
            </g>
            <g id="format-menu" transform="translate(112.000000, 70.000000)">
                <g id="Rectangle">
                    <use fill="black" fill-opacity="1" filter="url(#filter-5)" xlink:href="#path-4"></use>
                    <rect stroke="#D7D7D7" stroke-width="1" fill="#FFFFFF" fill-rule="evenodd" x="-0.5" y="-0.5" width="260" height="118" rx="3"></rect>
                </g>
                <g id="Elements/Color/Text/Gray-Copy" transform="translate(221.000000, 81.000000)">
                    <rect id="input" stroke="#D7D7D7" fill="#FFFFFF" x="-0.5" y="-0.5" width="27" height="27" rx="2"></rect>
                    <g id="Icon/Adv-Report/WrapText" transform="translate(1.000000, 1.000000)">
                        <g id="EVAlignTop">
                            <rect id="icon-bg" fill-opacity="0" fill="#FF8989" x="0" y="0" width="24" height="24"></rect>
                            <path d="M4,6 L20,6 L20,8 L4,8 L4,6 Z M4,10 L16.9905224,10 C18.652611,10 20,11.3496704 20,13.0092545 L20,13.9907455 C20,15.6527109 18.6600918,17 17.0048815,17 L15,17 L15,19 L10,16 L15,13 L15,15 L16.5,15 C17.3284271,15 18,14.3342028 18,13.5 C18,12.6715729 17.3247509,12 16.5017548,12 L4,12 L4,10 Z M4,15 L9,15 L9,17 L4,17 L4,15 Z" id="Combined-Shape" fill="#777777"></path>
                        </g>
                    </g>
                </g>
            </g>
        </g>
    </g>
</svg>