<svg xmlns="http://www.w3.org/2000/svg" width="30" height="20" viewBox="0 0 30 20">
  <title>
    ExportCSV
  </title>
  <path fill="#FFFFFF" fill-rule="evenodd" d="M10.582 11.921a3.78 3.78 0 0 1-.317 1.295 3.01 3.01 0 0 1-.737 1.013 3.37 3.37 0 0 1-1.14.66 4.543 4.543 0 0 1-1.526.238 3.964 3.964 0 0 1-1.596-.308 3.263 3.263 0 0 1-1.2-.885 4.023 4.023 0 0 1-.755-1.4 6.027 6.027 0 0 1-.264-1.844v-.61c0-.68.091-1.296.273-1.847a4.08 4.08 0 0 1 .772-1.402A3.347 3.347 0 0 1 5.3 5.94a3.919 3.919 0 0 1 1.587-.31c.575 0 1.084.081 1.526.244.443.163.818.39 1.127.68.309.29.55.634.724 1.034.173.4.283.835.33 1.305H8.69a2.881 2.881 0 0 0-.142-.73 1.432 1.432 0 0 0-.32-.534 1.326 1.326 0 0 0-.54-.327 2.524 2.524 0 0 0-.8-.11c-.644 0-1.123.233-1.438.7-.315.468-.473 1.193-.473 2.175v.622c0 .478.035.897.105 1.257.07.36.18.66.33.901.15.241.345.422.584.543.239.12.528.18.866.18.3 0 .56-.033.778-.1.218-.068.4-.171.546-.309.146-.137.259-.31.34-.517a2.54 2.54 0 0 0 .152-.724h1.904zm6.043.654c0-.16-.023-.306-.07-.435a.843.843 0 0 0-.27-.358 2.469 2.469 0 0 0-.552-.324 8.707 8.707 0 0 0-.91-.336 11.167 11.167 0 0 1-1.197-.457 4.403 4.403 0 0 1-.984-.6 2.675 2.675 0 0 1-.667-.797 2.177 2.177 0 0 1-.244-1.054c0-.385.084-.737.25-1.057.168-.319.403-.59.705-.815a3.463 3.463 0 0 1 1.08-.524 4.775 4.775 0 0 1 1.374-.187c.512 0 .977.07 1.396.213.42.141.777.34 1.073.593a2.626 2.626 0 0 1 .927 2.05H16.63c0-.194-.03-.374-.092-.54a1.096 1.096 0 0 0-.282-.425 1.314 1.314 0 0 0-.476-.276 2.07 2.07 0 0 0-.673-.098c-.25 0-.467.027-.65.082A1.322 1.322 0 0 0 14 7.46a.961.961 0 0 0-.365.762c0 .304.156.56.467.765.31.205.767.396 1.368.574.503.157.947.33 1.33.52.383.191.702.407.958.648.256.241.45.512.58.813.132.3.198.64.198 1.021 0 .407-.08.769-.238 1.086a2.243 2.243 0 0 1-.676.803 3.201 3.201 0 0 1-1.057.501 5.082 5.082 0 0 1-1.38.175c-.306 0-.61-.026-.915-.08a4.398 4.398 0 0 1-.873-.244 3.792 3.792 0 0 1-.771-.412 2.849 2.849 0 0 1-.619-.584 2.635 2.635 0 0 1-.413-.765c-.099-.286-.149-.602-.149-.95h1.911c0 .28.044.517.133.712.09.194.213.352.372.473.158.12.35.208.574.263.224.055.474.083.75.083.245 0 .458-.027.64-.08.182-.053.332-.126.45-.219a.867.867 0 0 0 .264-.333c.057-.13.086-.268.086-.416zm6.614.133l2.095-6.95h2.12L24.236 15h-1.987l-3.206-9.242h2.114l2.082 6.95z"/>
</svg>
