<svg xmlns="http://www.w3.org/2000/svg" width="24" height="24" viewBox="0 0 24 24">
  <title>
    Export
  </title>
  <g fill="none" fill-rule="evenodd">
    <rect width="24" height="24"/>
    <path fill="#777777" d="M8.61 6.046l-.028 2H5.998A.997.997 0 0 0 5 9.043v7.005c0 .551.447.998.998.998h7.004a.997.997 0 0 0 .998-.998v-2.002h2v2.997a2 2 0 0 1-2.003 2.003H5.003A2 2 0 0 1 3 17.043V8.048a2 2 0 0 1 2.003-2.002h3.606zM16 9.08c-2.824-.1-5.277 2.224-7 4.785 0-4.91 4-7.297 7-7.327V4.576c0-.553.363-.741.812-.417l3.876 2.8c.451.326.464.87.036 1.222l-3.948 3.23c-.432.353-.776.185-.776-.37V9.08z"/>
  </g>
</svg>
