<svg xmlns="http://www.w3.org/2000/svg" width="30" height="20" viewBox="0 0 30 20">
  <title>
    ExportRTF
  </title>
  <path fill="#FFFFFF" fill-rule="evenodd" d="M7.516 11.617H6V15H4.095V5.758h3.434c.533 0 1.011.06 1.434.18.424.121.781.3 1.073.534.292.235.516.526.673.873.157.347.235.749.235 1.206 0 .338-.038.642-.114.91a2.424 2.424 0 0 1-.33.718c-.144.21-.318.392-.521.549a3.408 3.408 0 0 1-.686.406l2 3.777V15H9.249l-1.733-3.383zM6 10.074h1.536c.25 0 .469-.033.657-.098a1.169 1.169 0 0 0 .752-.71c.064-.168.096-.356.096-.563 0-.436-.124-.779-.372-1.028-.247-.25-.627-.375-1.14-.375H6v2.774zM19.349 7.3h-2.832V15h-1.904V7.3H11.82V5.758h7.528V7.3zm6.645 3.923h-3.656V15h-1.904V5.758h6.017V7.3h-4.113v2.387h3.656v1.536z"/>
</svg>
