<svg xmlns="http://www.w3.org/2000/svg" width="30" height="20" viewBox="0 0 30 20">
  <title>
    ExportXLS
  </title>
  <path fill="#FFFFFF" fill-rule="evenodd" d="M7.488 8.944L9.22 5.758h2.19L8.72 10.34 11.48 15H9.265l-1.777-3.237L5.71 15H3.495l2.761-4.66-2.691-4.582h2.19l1.733 3.186zm6.855 4.526h4.043V15H12.44V5.758h1.904v7.712zm9.928-.895c0-.16-.024-.306-.07-.435a.843.843 0 0 0-.27-.358 2.469 2.469 0 0 0-.552-.324 8.707 8.707 0 0 0-.911-.336 11.167 11.167 0 0 1-1.197-.457 4.403 4.403 0 0 1-.983-.6 2.675 2.675 0 0 1-.667-.797 2.177 2.177 0 0 1-.244-1.054c0-.385.083-.737.25-1.057.168-.319.402-.59.705-.815a3.463 3.463 0 0 1 1.08-.524 4.775 4.775 0 0 1 1.373-.187c.512 0 .978.07 1.397.213.419.141.776.34 1.073.593a2.626 2.626 0 0 1 .926 2.05h-1.904c0-.194-.03-.374-.092-.54a1.096 1.096 0 0 0-.282-.425 1.314 1.314 0 0 0-.476-.276 2.07 2.07 0 0 0-.673-.098c-.25 0-.467.027-.651.082a1.322 1.322 0 0 0-.457.229.961.961 0 0 0-.365.762c0 .304.156.56.467.765.31.205.767.396 1.367.574.504.157.947.33 1.33.52.383.191.703.407.959.648.256.241.45.512.58.813.132.3.197.64.197 1.021 0 .407-.079.769-.238 1.086a2.243 2.243 0 0 1-.676.803 3.201 3.201 0 0 1-1.057.501 5.082 5.082 0 0 1-1.38.175c-.305 0-.61-.026-.914-.08a4.398 4.398 0 0 1-.873-.244 3.792 3.792 0 0 1-.771-.412 2.849 2.849 0 0 1-.62-.584 2.635 2.635 0 0 1-.412-.765c-.1-.286-.149-.602-.149-.95h1.91c0 .28.045.517.134.712.089.194.213.352.371.473.159.12.35.208.575.263.224.055.474.083.749.083.245 0 .459-.027.64-.08.183-.053.333-.126.452-.219a.867.867 0 0 0 .263-.333c.057-.13.086-.268.086-.416z"/>
</svg>
