<svg xmlns="http://www.w3.org/2000/svg" width="30" height="20" viewBox="0 0 30 20">
  <title>
    ExportPDF
  </title>
  <path fill="#FFFFFF" fill-rule="evenodd" d="M5.751 11.744V15H3.847V5.758h3.606c.546 0 1.033.076 1.463.228.43.153.793.365 1.092.638.298.273.525.597.682.971.157.375.235.782.235 1.222 0 .449-.078.853-.235 1.213-.157.36-.384.666-.682.92-.299.254-.663.45-1.092.587-.43.138-.917.207-1.463.207H5.75zm0-1.543h1.702c.27 0 .504-.034.701-.101.197-.068.358-.162.482-.283a1.1 1.1 0 0 0 .277-.435 1.863 1.863 0 0 0 0-1.127 1.363 1.363 0 0 0-.277-.488 1.332 1.332 0 0 0-.482-.34 1.767 1.767 0 0 0-.701-.127H5.75v2.901zM12.232 15V5.758h2.844c.622 0 1.192.107 1.71.32a3.85 3.85 0 0 1 1.334.902c.37.387.659.851.866 1.393.208.542.311 1.143.311 1.803v.419c0 .66-.102 1.26-.307 1.8a4.037 4.037 0 0 1-.87 1.39 3.871 3.871 0 0 1-1.343.898 4.527 4.527 0 0 1-1.72.317h-2.825zm1.905-7.7v6.17h.92c.753 0 1.327-.248 1.72-.746.394-.497.59-1.207.59-2.13v-.43c0-.94-.194-1.652-.583-2.137-.39-.484-.959-.727-1.708-.727h-.94zm12.105 3.923h-3.657V15h-1.904V5.758H26.7V7.3h-4.114v2.387h3.657v1.536z"/>
</svg>
