<svg xmlns="http://www.w3.org/2000/svg" width="24" height="24" viewBox="0 0 24 24">
  <title>
    ExpressViewSave
  </title>
  <g fill="none" fill-rule="evenodd">
    <rect width="24" height="24"/>
    <path fill="#777777" d="M16 19v-3.997A.993.993 0 0 0 15.003 14H8.997C8.453 14 8 14.449 8 15.003V19h-.994A2.005 2.005 0 0 1 5 16.994V7.006C5 5.898 5.897 5 7.006 5h9.988C18.102 5 19 5.897 19 7.006v9.988A2.005 2.005 0 0 1 16.994 19H16zM8 8v3c0 .556.446 1 .997 1h6.006c.544 0 .997-.448.997-1V8c0-.556-.446-1-.997-1H8.997C8.453 7 8 7.448 8 8zm2 8.999A.999.999 0 0 1 11.01 16h1.98c.558 0 1.01.443 1.01.999v1.002a.999.999 0 0 1-1.01.999h-1.98c-.558 0-1.01-.443-1.01-.999v-1.002z"/>
  </g>
</svg>
