<?xml version="1.0" encoding="UTF-8"?>
<svg width="122px" height="24px" viewBox="0 0 122 24" version="1.1" xmlns="http://www.w3.org/2000/svg" xmlns:xlink="http://www.w3.org/1999/xlink">
    <!-- Generator: Sketch 46.1 (44463) - http://www.bohemiancoding.com/sketch -->
    <title>FilterSingleChoice</title>
    <desc>Created with Sketch.</desc>
    <defs>
        <rect id="path-1" x="6" y="6" width="110" height="12" rx="2"></rect>
    </defs>
    <g stroke="none" stroke-width="1" fill="none" fill-rule="evenodd">
        <g>
            <rect x="0" y="0" width="122" height="24"></rect>
            <g>
                <use fill="#FFFFFF" fill-rule="evenodd" xlink:href="#path-1"></use>
                <rect stroke="#6896ED" stroke-width="2" x="5" y="5" width="112" height="14" rx="2"></rect>
            </g>
            <path d="M109.729345,10.2608131 L112.594965,13.3158674 L112.594965,13.3158674 C112.972801,13.7186805 112.952553,14.3515217 112.54974,14.7293577 C112.364373,14.9032303 112.119758,15 111.865607,15 L106.134367,15 L106.134367,15 C105.582082,15 105.134367,14.5522847 105.134367,14 C105.134367,13.7458494 105.231136,13.5012341 105.405009,13.3158674 L108.270629,10.2608131 L108.270629,10.2608131 C108.648465,9.85799995 109.281306,9.83775199 109.68412,10.215588 C109.699673,10.2301769 109.714756,10.2452597 109.729345,10.2608131 Z" fill="#6896ED" transform="translate(109.000000, 12.500000) scale(1, -1) translate(-109.000000, -12.500000) "></path>
        </g>
    </g>
</svg>