<svg xmlns="http://www.w3.org/2000/svg" width="16" height="16" viewBox="0 0 16 16">
  <title>
    FormatPaintbrush
  </title>
  <path fill="#777777" fill-rule="evenodd" d="M.09 15.252c1.572-1.769.573-2.963 1.756-4.125.763-.75 1.875-.538 2.693.266.818.804 1.033 1.897.27 2.647C3.011 15.808-.619 16.05.091 15.252zM14.954 1.046c.607.596-4.871 7.203-6.872 9.17-.993.976-1.525 1.302-1.923 1.601-.173.13-.226-.042-.267-.12a3.664 3.664 0 0 0-.75-1.006 3.723 3.723 0 0 0-1.023-.736c-.079-.04-.254-.093-.121-.263.304-.391.636-.915 1.628-1.89 2.001-1.968 8.721-7.353 9.328-6.756zM11.415 4.26C9.501 5.708 7.326 7.532 6.326 8.514c-.418.412-.732.756-.997 1.082.565.361.48.38.95.888.332-.26.682-.57 1.101-.981 1-.983 2.855-3.121 4.328-5.003.277-.353.772-1.01.772-1.01s-.024-.017-1.065.77z"/>
</svg>
