<svg xmlns="http://www.w3.org/2000/svg" width="16" height="16" viewBox="0 0 16 16">
  <title>
    FormatCells
  </title>
  <g fill="none" fill-rule="evenodd">
    <rect width="14" height="14" x="1" y="1" fill="#808080"/>
    <rect width="12" height="10" x="2" y="4" fill="#FFFFFF"/>
    <path fill="#929191" d="M10 4h2v2h-2V4zm0 4h2v2h-2V8zm0 4h2v2h-2v-2z"/>
    <path fill="#808080" d="M12 10h2v2h-2v-2zm0-4h2v2h-2V6z"/>
    <path fill="#A8A8A8" d="M8 6h2v2H8V6zm0 4h2v2H8v-2z"/>
    <path fill="#F3F3F3" d="M4 6h2v2H4V6zm0 4h2v2H4v-2z"/>
    <path fill="#CBCBCB" d="M6 4h2v2H6V4zm0 4h2v2H6V8zm0 4h2v2H6v-2z"/>
  </g>
</svg>
