<svg xmlns="http://www.w3.org/2000/svg" width="16" height="16" viewBox="0 0 16 16">
  <title>
    Formula
  </title>
  <path fill="#808080" fill-rule="evenodd" d="M9.984 2.222c0 .02-.003.05-.007.092a5.711 5.711 0 0 1-.019.139 1.455 1.455 0 0 1-.084.318.435.435 0 0 1-.066.118c-.024.029-.051.044-.08.044a.376.376 0 0 1-.129-.03 2.446 2.446 0 0 0-.421-.125 1.496 1.496 0 0 0-.307-.028c-.21 0-.39.031-.539.095a.98.98 0 0 0-.384.296 1.753 1.753 0 0 0-.271.51 4.982 4.982 0 0 0-.19.724l-.125.66h1.472c.054 0 .096.018.128.055.032.036.048.096.048.179 0 .054-.005.11-.015.168-.01.06-.022.116-.037.173-.014.056-.032.11-.054.16a.784.784 0 0 1-.074.136.38.38 0 0 1-.091.095.176.176 0 0 1-.103.037h-1.48l-1.252 6.24a4.68 4.68 0 0 1-.337 1.066c-.141.3-.315.55-.52.747a1.952 1.952 0 0 1-.71.44 2.706 2.706 0 0 1-.908.142c-.22 0-.4-.017-.539-.05-.139-.035-.225-.067-.26-.096a.26.26 0 0 1-.044-.08.381.381 0 0 1-.014-.118c0-.02.003-.052.01-.099l.026-.146c.01-.052.022-.105.037-.161.015-.057.032-.109.051-.158a.435.435 0 0 1 .066-.117.11.11 0 0 1 .088-.044c.034 0 .067.004.099.011a3.579 3.579 0 0 0 .234.044c.052.007.116.01.194.01.206 0 .383-.03.531-.094a.953.953 0 0 0 .381-.297c.105-.134.193-.304.264-.509.07-.205.135-.452.194-.74l1.201-5.99h-.937a.14.14 0 0 1-.114-.049c-.027-.031-.04-.091-.04-.179a1.69 1.69 0 0 1 .033-.315 1.22 1.22 0 0 1 .048-.168.685.685 0 0 1 .073-.147c.029-.044.06-.08.091-.106a.18.18 0 0 1 .121-.04h.923l.183-.916c.078-.4.19-.75.337-1.05.147-.301.324-.549.531-.744.208-.196.447-.34.718-.436.27-.095.57-.143.897-.143a3.255 3.255 0 0 1 .663.07c.1.022.188.047.264.077a.47.47 0 0 1 .157.087.22.22 0 0 1 .066.103c.015.044.022.09.022.14zM11.569 9.4l1.053 2.364c.022.05.03.092.024.126-.005.034-.028.062-.067.083a.474.474 0 0 1-.164.046c-.07.009-.16.013-.271.013-.1 0-.179-.002-.236-.008a.517.517 0 0 1-.135-.027c-.032-.012-.053-.028-.064-.048a.794.794 0 0 1-.032-.067l-.806-1.907-1.52 1.907a.594.594 0 0 1-.067.067.245.245 0 0 1-.1.046c-.042.01-.097.02-.163.026a2.526 2.526 0 0 1-.513-.002.331.331 0 0 1-.143-.046c-.03-.021-.042-.048-.037-.08a.326.326 0 0 1 .062-.124l2.008-2.385-.993-2.256a.262.262 0 0 1-.027-.126c.004-.034.022-.062.056-.083a.364.364 0 0 1 .153-.043c.068-.007.158-.01.269-.01.1 0 .179.002.236.007a.579.579 0 0 1 .132.024c.03.011.052.026.064.043a.36.36 0 0 1 .035.065l.768 1.805 1.45-1.805a.966.966 0 0 1 .065-.06.27.27 0 0 1 .091-.045.707.707 0 0 1 .148-.027c.06-.005.137-.008.234-.008.107 0 .195.004.263.011.068.007.118.02.15.038.032.017.046.043.04.077-.005.034-.03.077-.077.127L11.569 9.4z"/>
</svg>
