<svg xmlns="http://www.w3.org/2000/svg" width="40" height="40" viewBox="0 0 40 40">
  <title>
    GaugeTypeAngular
  </title>
  <g fill="none" fill-rule="evenodd">
    <path fill="#E85D61" d="M20 12.994c-8.284 0-15 6.716-15 15 0 .678.045 1.346.132 2h7.12a8 8 0 0 1 8.12-9.992c.846-1.067 1.833-2.304 2.963-3.716l.099-.124c.582-.728 1.18-1.475 1.79-2.234A14.969 14.969 0 0 0 20 12.994z"/>
    <path fill="#666666" d="M18.546 29.618c.966.535 2.668-.688 3.203-1.654C22.285 26.997 31.757 9 31.757 9s-12.97 16.058-13.506 17.024c-.536.966-.672 3.058.295 3.594z"/>
    <path fill="#00D995" d="M35 27.994c0 .678-.045 1.346-.132 2h-7.12c.164-.64.252-1.31.252-2a7.964 7.964 0 0 0-1.519-4.69 9764.531 9764.531 0 0 0 3.453-6.55A14.964 14.964 0 0 1 35 27.995z"/>
  </g>
</svg>
