<svg xmlns="http://www.w3.org/2000/svg" width="16" height="16" viewBox="0 0 16 16">
  <title>
    GoogleMaps
  </title>
  <g fill="none" fill-rule="evenodd">
    <path fill="#D9D9D9" d="M12 14c0-.552-1.79-1-4-1s-4 .448-4 1 1.79 1 4 1 4-.448 4-1zm-9 0c0-1.468 2.127-2 5-2s5 .532 5 2-2.127 2-5 2-5-.532-5-2z"/>
    <path fill="#808080" d="M8 15s5-6.239 5-9A5 5 0 0 0 3 6c0 2.761 5 9 5 9z"/>
    <path fill="#B3B3B3" d="M8 13.356s4-5.258 4-7.427C12 3.759 10.21 2 8 2S4 3.759 4 5.929s4 7.427 4 7.427z"/>
    <circle cx="8" cy="6" r="3" fill="#808080"/>
    <circle cx="8" cy="6" r="2" fill="#FFFFFF"/>
  </g>
</svg>
