<svg xmlns="http://www.w3.org/2000/svg" width="24" height="24" viewBox="0 0 24 24">
  <title>
    GroupStateMenu
  </title>
  <g fill="none" fill-rule="evenodd">
    <rect width="24" height="24"/>
    <path fill="#777777" d="M5 6c0-.552.449-1 1.007-1h12.985C19.55 5 20 5.444 20 6c0 .552-.449 1-1.008 1H6.007A1.001 1.001 0 0 1 5 6zm-.997 7c-.554 0-.751-.36-.425-.826l2.344-3.348c.32-.456.83-.466 1.156 0l2.344 3.348c.32.456.14.826-.425.826H4.003zm0 2h4.994c.565 0 .744.37.425.826l-2.344 3.348c-.326.466-.837.456-1.156 0l-2.344-3.348c-.326-.466-.129-.826.425-.826zM11 10c0-.552.446-1 .998-1h7.004c.551 0 .998.444.998 1 0 .552-.446 1-.998 1h-7.004A.996.996 0 0 1 11 10zm0 4c0-.552.446-1 .998-1h7.004c.551 0 .998.444.998 1 0 .552-.446 1-.998 1h-7.004A.996.996 0 0 1 11 14zm0 4c0-.552.446-1 .998-1h7.004c.551 0 .998.444.998 1 0 .552-.446 1-.998 1h-7.004A.996.996 0 0 1 11 18z"/>
  </g>
</svg>
