<svg xmlns="http://www.w3.org/2000/svg" width="24" height="24" viewBox="0 0 24 24">
  <title>
    Help
  </title>
  <path fill="#D5D5D5" fill-rule="evenodd" d="M12 21a9 9 0 1 0 0-18 9 9 0 0 0 0 18zm-1.324-4.491c0-.19.032-.367.094-.528.063-.162.152-.301.266-.42a1.25 1.25 0 0 1 .417-.28 1.39 1.39 0 0 1 .547-.105c.202 0 .384.035.547.104.164.07.303.163.417.281.114.119.203.258.266.42.062.161.094.337.094.528 0 .184-.032.357-.094.519a1.198 1.198 0 0 1-.682.696c-.164.066-.346.1-.548.1-.202 0-.384-.034-.547-.1a1.198 1.198 0 0 1-.683-.696 1.423 1.423 0 0 1-.094-.52zM12 6c3 0 4 1.81 4 2.986 0 2.954-2.72 2.552-3 4.424v.588h-2V13.3c.23-2.676 2.461-2.428 2.412-4.099C13.412 8.26 12.5 8 12 8c-1.226 0-1.5.9-1.5 1.999H8C8.05 7.787 10 6 12 6z"/>
</svg>
