<svg xmlns="http://www.w3.org/2000/svg" width="16" height="16" viewBox="0 0 16 16">
  <title>
    LinkedAction
  </title>
  <g fill="none" fill-rule="evenodd">
    <polygon fill="#808080" points="4.625 6.123 8.754 9.662 9.3 8.813 5.229 5.324"/>
    <rect width="5" height="5" x="1" y="2" fill="#808080"/>
    <rect width="3" height="3" x="2" y="3" fill="#B3B3B3"/>
    <rect width="5" height="5" x="8" y="8" fill="#808080"/>
    <rect width="3" height="3" x="9" y="9" fill="#FFFFFF"/>
    <path fill="#B3B3B3" d="M10 5h1v2h-1V5zm0 9h1v2h-1v-2zm5.036-8.743l.707.707-1.415 1.415-.707-.707 1.415-1.415zm-8.364 8.364l.707.707-1.415 1.415-.707-.707 1.415-1.415zM16 10v1h-2v-1h2zm-9 0v1H5v-1h2zm8.743 5.036l-.707.707-1.415-1.415.707-.707 1.415 1.415z"/>
  </g>
</svg>
