<svg xmlns="http://www.w3.org/2000/svg" width="24" height="24" viewBox="0 0 24 24">
  <title>
    LiveModeOn
  </title>
  <g fill="none" fill-rule="evenodd">
    <rect width="24" height="24"/>
    <path fill="#6896ED" d="M5.598 19.685A9.98 9.98 0 0 1 2 12.002 9.98 9.98 0 0 1 5.598 4.32l1.28 1.536A7.983 7.983 0 0 0 4 12.002c0 2.47 1.12 4.679 2.878 6.146l-1.28 1.537zm12.804 0l-1.28-1.537A7.983 7.983 0 0 0 20 12.002c0-2.47-1.12-4.678-2.878-6.146l1.28-1.536A9.98 9.98 0 0 1 22 12.002a9.98 9.98 0 0 1-3.598 7.683zM8.159 16.612A5.987 5.987 0 0 1 6 12.002c0-1.852.84-3.508 2.159-4.609l1.28 1.536A3.992 3.992 0 0 0 8 12.002c0 1.235.56 2.34 1.44 3.073l-1.281 1.537zm7.682 0l-1.28-1.537A3.992 3.992 0 0 0 16 12.002c0-1.235-.56-2.339-1.44-3.073l1.281-1.536A5.987 5.987 0 0 1 18 12.003c0 1.852-.84 3.508-2.159 4.609zM12 14.002a2 2 0 1 1 0-4 2 2 0 0 1 0 4z"/>
  </g>
</svg>
