<svg xmlns="http://www.w3.org/2000/svg" width="24" height="24" viewBox="0 0 24 24">
  <title>
    MainLeftPaneDataFieldsSelected
  </title>
  <path fill="#6896ED" fill-rule="evenodd" d="M4 19.5v-3.761c.358.14.774.284 1.25.422C7.075 16.689 9.317 17 12 17s4.926-.31 6.75-.84A14.3 14.3 0 0 0 20 15.74V19.5S17.65 21 12 21s-8-1.5-8-1.5zm0-9.761c.358.14.774.284 1.25.422C7.075 10.689 9.317 11 12 11s4.926-.31 6.75-.84A14.3 14.3 0 0 0 20 9.74V13.5S17.65 15 12 15s-8-1.5-8-1.5V9.739zM4 5s3.448-2 8.036-2C16.625 3 20 5 20 5v2.5S17.65 9 12 9 4 7.5 4 7.5V5z"/>
</svg>
