<svg xmlns="http://www.w3.org/2000/svg" width="160" height="42" viewBox="0 0 160 42">
  <title>
    MainCompanyLogoAdmin
  </title>
  <path fill="#6896ED" fill-rule="evenodd" d="M139 .011c-6.187 0-12.031 5.273-12.031 11.493 0 6.22 5.844 11.494 12.031 11.494h9c6.187 0 12-5.273 12-11.494 0-6.22-5.813-11.493-12-11.493h-9zm0 17.99c-3.567 0-7-2.91-7-6.497 0-3.587 3.433-6.496 7-6.496h9c3.567 0 7 2.91 7 6.496 0 3.587-3.433 6.497-7 6.497h-9zm-36 6.996l-4 4.997h18a3.781 3.781 0 0 1 4 3.498 3.781 3.781 0 0 1-4 3.498h-15a3.676 3.676 0 0 1-3.882-3.498c0-.208-.111-1.268-.118-1.5l-4 4.998a8.278 8.278 0 0 0 7.841 5.007h15.6a8.511 8.511 0 0 0 7.447-4.226 8.5 8.5 0 0 0 0-8.558 8.511 8.511 0 0 0-7.447-4.225L103 24.997zm12-2c6.21-.145 11.13-5.286 11-11.493a11.865 11.865 0 0 0-4.132-8.895L123.991 0h-19.456C98.218.105 93.119 5.191 93 11.504c0 6.22 5.813 11.494 12 11.494h10zm0-17.989a5.047 5.047 0 0 1 2.519.4A6.747 6.747 0 0 1 121 11.504c0 3.587-3.433 6.497-7 6.497h-9c-3.567 0-7-2.91-7-6.497 0-3.587 3.433-6.496 7-6.496h10zM63 .011v4.997h16c2.712 0 6.039 1.613 7 3.998H68a7.12 7.12 0 0 0-7 6.996 7.12 7.12 0 0 0 7 6.996h13c6.21-.146 11.13-5.287 11-11.494C91.971 5.24 86.933.148 80.665.05L63 .011zm5 17.99a2 2 0 1 1 0-3.998h18C85.067 16.444 81.752 18 79 18H68zM37 .01h-7l12.031 11.493L30 22.998h7s3.974-3.59 4.912-4.617c2.424-2.651 3.119-4.297 3.119-6.877a9 9 0 0 0-3.119-7.258C40.858 3.34 37 .01 37 .01zm25 0h-7s-4.255 3.21-5.193 4.236a9.345 9.345 0 0 0-2.776 7.257c0 2.579.343 4.793 2.777 6.878 1.054.905 5.192 4.616 5.192 4.616h7L49.969 11.504 62 .011zM11 22.998h17V18H13c-2.712 0-6.039-1.612-7-3.998h22V9.006H6c.933-2.44 4.185-3.998 6.938-3.998H28V.011H11.063C4.875.011.031 5.008.031 11.504-.131 17.711 4.79 22.852 11 22.998z"/>
</svg>
