<svg xmlns="http://www.w3.org/2000/svg" width="16" height="16" viewBox="0 0 16 16">
  <title>
    Map
  </title>
  <path fill="#808080" fill-rule="evenodd" d="M15 7.978C15 11.888 11.915 15 8.01 15A6.988 6.988 0 0 1 1 7.978C1 4.111 4.127 1 8.01 1A6.948 6.948 0 0 1 15 7.978zM4.267 9.958a12.35 12.35 0 0 1-.143-1.91c0-.478.024-.86.07-1.315-1.096-.214-1.74-.381-2.24-.596a6.716 6.716 0 0 0-.264 1.84c0 .31 0 .62.048.883.31.358 1.097.836 2.529 1.099zm1.312 3.847c-.55-.764-.907-1.744-1.145-2.89-.955-.215-1.813-.478-2.386-.79.358.885.811 1.673 1.503 2.318.573.621 1.289 1.052 2.028 1.362zM2.31 5.3c.214.191.572.215 1.98.597.262-1.529.716-2.794 1.43-3.75-.81.382-1.526.716-2.17 1.41-.549.501-.954 1.122-1.24 1.743zm2.815 4.826c.81.144 1.597.215 2.408.24v-3.37a28.536 28.536 0 0 1-2.528-.167c0 .43-.023.789-.023 1.219 0 .693.047 1.433.143 2.078zm0-4.109c.787.072 1.597.12 2.408.143V1.717h-.047c-1.074.43-1.98 2.102-2.361 4.3zm2.41 8.266V11.2c-.74-.024-1.48-.072-2.195-.143.143.621.357 1.17.643 1.672.358.86.906 1.553 1.551 1.553zM8.44 1.717V6.16a40.2 40.2 0 0 0 2.433-.143c-.31-1.72-1.001-3.225-1.813-3.966-.214-.143-.453-.334-.62-.334zm2.41 8.433c.119-.645.142-1.386.142-2.102 0-.43 0-.789-.023-1.195-.811.072-1.646.12-2.529.143v3.37a19.654 19.654 0 0 0 2.41-.216zm-.191.908c-.74.071-1.48.12-2.219.143v3.082c1.24 0 1.909-2.15 2.219-3.225zm-.382-8.935c.715.932 1.168 2.246 1.407 3.799 1.288-.24 1.813-.454 2.004-.598-.668-1.48-1.933-2.675-3.411-3.201zm3.602 8.099c-.62.287-1.432.525-2.314.717-.262 1.146-.596 2.078-1.17 2.866.74-.31 1.48-.74 2.052-1.361.668-.622 1.121-1.386 1.432-2.222zm-2.147-.24c2.48-.405 2.576-.978 2.576-2.006 0-.597-.095-1.242-.286-1.816a7.879 7.879 0 0 1-2.219.574c.048.454.048.836.048 1.314 0 .645-.048 1.338-.119 1.935z"/>
</svg>
