<svg xmlns="http://www.w3.org/2000/svg" width="12" height="12" viewBox="0 0 12 12">
  <title>
    MenuFormula
  </title>
  <g fill="none" fill-rule="evenodd">
    <rect width="12" height="12" rx="2"/>
    <path fill="#777777" d="M6.5 5h1.345a.25.25 0 0 1 .224.138L9 7l.93-1.862A.25.25 0 0 1 10.156 5h1.595a.25.25 0 0 1 .25.25v.5a.25.25 0 0 1-.25.25H11l-1 2 1 2h.75a.25.25 0 0 1 .25.25v.5a.25.25 0 0 1-.25.25h-1.595a.25.25 0 0 1-.224-.138L9 9l-.93 1.862a.25.25 0 0 1-.225.138H6.25a.25.25 0 0 1-.25-.25v-.5a.25.25 0 0 1 .25-.25H7l1-2-1-2H4.5c0 1.667-.1 3-.302 4-.195.963-1.19 1.308-2.986 1.035A.25.25 0 0 1 1 10.786v-.521a.25.25 0 0 1 .26-.25c1.16.048 1.74-.239 1.74-.86V6H1.25A.25.25 0 0 1 1 5.75v-.5A.25.25 0 0 1 1.25 5H3c0-1.667.333-2.833 1-3.5C4.643.857 5.905.68 7.788.966A.25.25 0 0 1 8 1.213v.515a.25.25 0 0 1-.27.25c-1.362-.105-2.22.02-2.573.373C4.781 2.727 4.562 3.61 4.5 5h2z"/>
  </g>
</svg>
