<svg xmlns="http://www.w3.org/2000/svg" width="12" height="12" viewBox="0 0 12 12">
  <title>
    MenuGauge
  </title>
  <g fill="none" fill-rule="evenodd">
    <rect width="12" height="12" rx="2"/>
    <path fill="#777777" d="M6.436 3.016a297.764 297.764 0 0 0-.686 1.49A4.5 4.5 0 0 0 1.968 11H.34a6 6 0 0 1 6.095-7.984zm3.278 1.271A5.99 5.99 0 0 1 12 9a5.99 5.99 0 0 1-.341 2h-1.627c.3-.602.468-1.282.468-2 0-1.183-.457-2.26-1.203-3.063a107.17 107.17 0 0 0 .417-1.65zM5.669 10.65c-.792-.242-.76-.934-.517-1.726C5.297 8.447 8.5 1 9 1S7.306 8.716 7.064 9.508c-.242.793-.603 1.385-1.395 1.142z"/>
  </g>
</svg>
