<svg xmlns="http://www.w3.org/2000/svg" width="12" height="12" viewBox="0 0 12 12">
  <title>
    MenuSorts
  </title>
  <g fill="none" fill-rule="evenodd">
    <rect width="12" height="12" rx="2"/>
    <path fill="#BBBBBB" d="M1.5 2h4a.5.5 0 0 1 .5.5v1a.5.5 0 0 1-.5.5h-4a.5.5 0 0 1-.5-.5v-1a.5.5 0 0 1 .5-.5zm0 3h4a.5.5 0 0 1 .5.5v1a.5.5 0 0 1-.5.5h-4a.5.5 0 0 1-.5-.5v-1a.5.5 0 0 1 .5-.5zm0 3h4a.5.5 0 0 1 .5.5v1a.5.5 0 0 1-.5.5h-4a.5.5 0 0 1-.5-.5v-1a.5.5 0 0 1 .5-.5z"/>
    <path fill="#777777" d="M10 7h1.749a.25.25 0 0 1 .21.385l-2.249 3.5a.25.25 0 0 1-.42 0l-2.25-3.5A.25.25 0 0 1 7.252 7H9V1.5a.5.5 0 0 1 1 0V7z"/>
  </g>
</svg>
