<svg xmlns="http://www.w3.org/2000/svg" width="12" height="12" viewBox="0 0 12 12">
  <title>
    MenuSorts
  </title>
  <g fill="none" fill-rule="evenodd">
    <rect width="12" height="12" rx="2"/>
    <path fill="#777777" d="M1.5 0h4a.5.5 0 0 1 .5.5v2a.5.5 0 0 1-.5.5h-4a.5.5 0 0 1-.5-.5v-2a.5.5 0 0 1 .5-.5zm.75 1a.25.25 0 0 0-.25.25v.5c0 .138.112.25.25.25h2.5A.25.25 0 0 0 5 1.75v-.5A.25.25 0 0 0 4.75 1h-2.5zM1.5 4h4a.5.5 0 0 1 .5.5v2a.5.5 0 0 1-.5.5h-4a.5.5 0 0 1-.5-.5v-2a.5.5 0 0 1 .5-.5zm.75 1a.25.25 0 0 0-.25.25v.5c0 .138.112.25.25.25h2.5A.25.25 0 0 0 5 5.75v-.5A.25.25 0 0 0 4.75 5h-2.5zM1.5 8h4a.5.5 0 0 1 .5.5v2a.5.5 0 0 1-.5.5h-4a.5.5 0 0 1-.5-.5v-2a.5.5 0 0 1 .5-.5zm.75 1a.25.25 0 0 0-.25.25v.5c0 .138.112.25.25.25h2.5A.25.25 0 0 0 5 9.75v-.5A.25.25 0 0 0 4.75 9h-2.5zM10 7h1.749a.25.25 0 0 1 .21.385l-2.249 3.5a.25.25 0 0 1-.42 0l-2.25-3.5A.25.25 0 0 1 7.252 7H9V.5a.5.5 0 0 1 1 0V7z"/>
  </g>
</svg>
