<?xml version="1.0" encoding="UTF-8"?>
<svg width="48px" height="48px" viewBox="0 0 48 48" version="1.1" xmlns="http://www.w3.org/2000/svg" xmlns:xlink="http://www.w3.org/1999/xlink">
    <!-- Generator: Sketch 48.2 (47327) - http://www.bohemiancoding.com/sketch -->
    <title>MissingCellStyle</title>
    <desc>Created with Sketch.</desc>
    <defs></defs>
    <g stroke="none" stroke-width="1" fill="none" fill-rule="evenodd" transform="translate(-177.000000, -267.000000)">
        <g transform="translate(50.000000, 150.000000)" fill="#D7D7D7">
            <g transform="translate(127.000000, 117.000000)">
                <path d="M19.8352051,29.8769531 L10.3283691,29.8769531 L7.12182617,36 L3.88305664,36 L16.6286621,12.5390625 L19.2873535,12.5390625 L23.9279785,36 L20.9470215,36 L19.8352051,29.8769531 Z M11.6657715,27.3310547 L19.3840332,27.3310547 L17.4343262,16.3901367 L11.6657715,27.3310547 Z M37.3342285,36 C37.2590328,35.688475 37.2214355,35.3823257 37.2214355,35.081543 C37.2214355,34.7807602 37.2375487,34.4746109 37.2697754,34.1630859 C36.5607875,34.8183627 35.7819867,35.3474101 34.9333496,35.7502441 C34.0847126,36.1530782 33.1662647,36.3437501 32.1779785,36.3222656 C31.4475061,36.3115234 30.765384,36.1853039 30.1315918,35.9436035 C29.4977996,35.7019031 28.9499535,35.360842 28.4880371,34.9204102 C28.0261207,34.4799783 27.6716321,33.9536163 27.4245605,33.3413086 C27.177489,32.7290008 27.0754392,32.0468788 27.1184082,31.2949219 C27.1828617,30.188471 27.4755833,29.2592811 27.996582,28.5073242 C28.5175807,27.7553673 29.1755331,27.1511253 29.970459,26.6945801 C30.7653848,26.2380348 31.6462354,25.9104014 32.6130371,25.7116699 C33.5798388,25.5129385 34.541255,25.4135742 35.4973145,25.4135742 L38.5427246,25.4296875 L38.736084,24.0439453 C38.7897952,23.53906 38.768311,23.0798361 38.6716309,22.6662598 C38.5749507,22.2526835 38.4030774,21.8955093 38.1560059,21.5947266 C37.9089343,21.2939438 37.5893574,21.0603036 37.1972656,20.8937988 C36.8051738,20.7272941 36.3513209,20.6386719 35.8356934,20.6279297 C35.3845192,20.6171874 34.9387229,20.6682123 34.498291,20.7810059 C34.0578591,20.8937994 33.6523456,21.0656727 33.2817383,21.2966309 C32.911131,21.527589 32.5915541,21.8176252 32.322998,22.166748 C32.054442,22.5158709 31.8718267,22.9213844 31.7751465,23.3833008 L28.8425293,23.3994141 C28.9284672,22.5292925 29.2104468,21.7692904 29.6884766,21.1193848 C30.1665063,20.4694792 30.7519497,19.9270041 31.4448242,19.4919434 C32.1376988,19.0568826 32.8977009,18.7346202 33.7248535,18.5251465 C34.5520061,18.3156728 35.3522911,18.2163085 36.1257324,18.2270508 C37.0065962,18.2485353 37.8041956,18.3962389 38.5185547,18.670166 C39.2329137,18.9440932 39.8371557,19.3334936 40.3312988,19.8383789 C40.8254419,20.3432642 41.1879871,20.9528773 41.4189453,21.6672363 C41.6499035,22.3815954 41.7224125,23.1899369 41.6364746,24.0922852 L40.2990723,32.1972656 C40.2023921,32.7880889 40.1459962,33.3789033 40.1298828,33.9697266 C40.1137695,34.5605498 40.1809075,35.1459932 40.3312988,35.7260742 L40.2990723,36 L37.3342285,36 Z M32.7580566,33.7441406 C33.2521997,33.7548829 33.7275368,33.6984869 34.184082,33.5749512 C34.6406273,33.4514154 35.072996,33.2714856 35.4812012,33.0351562 C35.8894063,32.7988269 36.2680647,32.5195329 36.6171875,32.1972656 C36.9663103,31.8749984 37.2805162,31.5205097 37.5598145,31.1337891 L38.1882324,27.5405273 L35.9807129,27.5244141 C35.4006319,27.5244141 34.7829623,27.5646969 34.1276855,27.6452637 C33.4724088,27.7258305 32.8601103,27.8869617 32.2907715,28.1286621 C31.7214327,28.3703625 31.2353536,28.7087381 30.8325195,29.1437988 C30.4296855,29.5788596 30.1853032,30.1508754 30.0993652,30.8598633 C30.045654,31.3002952 30.0751947,31.6950666 30.1879883,32.0441895 C30.3007818,32.3933123 30.4753406,32.6940905 30.7116699,32.9465332 C30.9479992,33.1989759 31.2407209,33.3923333 31.5898438,33.5266113 C31.9389666,33.6608893 32.328367,33.7333984 32.7580566,33.7441406 Z"></path>
            </g>
        </g>
    </g>
</svg>