<?xml version="1.0" encoding="UTF-8"?>
<svg width="48px" height="48px" viewBox="0 0 48 48" version="1.1" xmlns="http://www.w3.org/2000/svg" xmlns:xlink="http://www.w3.org/1999/xlink">
    <!-- Generator: Sketch 46 (44423) - http://www.bohemiancoding.com/sketch -->
    <title>MissingImage</title>
    <desc>Created with Sketch.</desc>
    <defs>
        <path d="M13,10 L27.5,10 L34,17.5 L34,40 L34,40 C34,40.5522847 33.5522847,41 33,41 L13,41 L13,41 C12.4477153,41 12,40.5522847 12,40 L12,11 L12,11 C12,10.4477153 12.4477153,10 13,10 Z" id="path-1"></path>
        <path d="M16,7 L30.5,7 L37,14.5 L37,37 L37,37 C37,37.5522847 36.5522847,38 36,38 L16,38 L16,38 C15.4477153,38 15,37.5522847 15,37 L15,8 L15,8 C15,7.44771525 15.4477153,7 16,7 Z" id="path-2"></path>
    </defs>
    <g stroke="none" stroke-width="1" fill="none" fill-rule="evenodd">
        <g transform="translate(-122.000000, -92.000000)">
            <g transform="translate(122.000000, 92.000000)">
                <g>
                    <use fill="#FFFFFF" fill-rule="evenodd" xlink:href="#path-1"></use>
                    <path stroke="#D7D7D7" stroke-width="2" d="M13,9 L27.9566289,9 L35,17.1269667 L35,40 C35,41.1045695 34.1045695,42 33,42 L13,42 C11.8954305,42 11,41.1045695 11,40 L11,11 C11,9.8954305 11.8954305,9 13,9 Z"></path>
                </g>
                <g>
                    <use fill="#FFFFFF" fill-rule="evenodd" xlink:href="#path-2"></use>
                    <path stroke="#D7D7D7" stroke-width="2" d="M16,6 L30.9566289,6 L38,14.1269667 L38,37 C38,38.1045695 37.1045695,39 36,39 L16,39 C14.8954305,39 14,38.1045695 14,37 L14,8 C14,6.8954305 14.8954305,6 16,6 Z"></path>
                </g>
                <path d="M31,14 L31,5 L29,5 L29,15 L29,16 L39,16 L39,14 L31,14 Z" fill="#D7D7D7"></path>
                <path d="M19,21 L33,21 L33,21 C33.5522847,21 34,21.4477153 34,22 L34,22 C34,22.5522847 33.5522847,23 33,23 L19,23 C18.4477153,23 18,22.5522847 18,22 L18,22 L18,22 C18,21.4477153 18.4477153,21 19,21 L19,21 Z M19,25 L33,25 C33.5522847,25 34,25.4477153 34,26 C34,26.5522847 33.5522847,27 33,27 L19,27 L19,27 C18.4477153,27 18,26.5522847 18,26 C18,25.4477153 18.4477153,25 19,25 L19,25 Z M19,29 L25,29 C25.5522847,29 26,29.4477153 26,30 C26,30.5522847 25.5522847,31 25,31 L19,31 C18.4477153,31 18,30.5522847 18,30 C18,29.4477153 18.4477153,29 19,29 L19,29 Z" fill="#D7D7D7"></path>
            </g>
        </g>
    </g>
</svg>