<svg xmlns="http://www.w3.org/2000/svg" width="48" height="48" viewBox="0 0 48 48">
  <title>
    MissingFilter
  </title>
  <g fill="none" fill-rule="evenodd">
    <rect width="48" height="48" fill="none"/>
    <path fill="#D7D7D7" fill-rule="nonzero" d="M12.012 11h24.976C38.1 11 39 11.895 39 13c0 .445-.15.877-.424 1.228l-10.132 12.23a1.993 1.993 0 0 0-.424 1.228V36c0 .552-.45 1-1.005 1h-5.03a1.003 1.003 0 0 1-1.005-1v-8.314c0-.445-.15-.877-.424-1.228l-10.132-12.23a1.992 1.992 0 0 1 .353-2.807A2.02 2.02 0 0 1 12.012 11zm13.997 24v-7.314c0-.89.298-1.753.847-2.456L36.988 13H12.012l10.132 12.23c.55.703.847 1.567.847 2.456V35h3.018z"/>
  </g>
</svg>
