<svg xmlns="http://www.w3.org/2000/svg" width="48" height="48" viewBox="0 0 48 48">
  <title>
    MissingSort
  </title>
  <g fill="none" fill-rule="evenodd">
    <rect width="48" height="48" fill="none"/>
    <path fill="#D7D7D7" d="M32.034 27.967h-3.38c-.547 0-.732.362-.406.819l4.203 5.879c.323.452.845.456 1.17 0l4.204-5.88c.323-.452.137-.818-.407-.818h-3.38V12.998c0-.544-.449-.998-1.002-.998a.998.998 0 0 0-1.002.998V27.967z"/>
    <rect width="14.022" height="6.975" x="11" y="27.967" fill="#D7D7D7" rx="2"/>
    <path fill="#D7D7D7" d="M11 21.966c0-1.104.898-2 2.01-2h10.003c1.11 0 2.01.899 2.01 2v2.977a2.003 2.003 0 0 1-2.01 2H13.01c-1.11 0-2.009-.898-2.009-2v-2.977zm2.004.989v1c0 .554.447.995.997.995h8.02c.54 0 .997-.446.997-.996v-1a.994.994 0 0 0-.997-.995h-8.02c-.54 0-.997.446-.997.996zM11 13.965c0-1.103.898-1.998 2.01-1.998h10.003c1.11 0 2.01.898 2.01 1.999v2.977a2.003 2.003 0 0 1-2.01 2H13.01c-1.11 0-2.009-.898-2.009-2v-2.977zm2.004.99v1c0 .554.447.995.997.995h8.02c.54 0 .997-.446.997-.996v-1a.994.994 0 0 0-.997-.995h-8.02c-.54 0-.997.446-.997.996z"/>
  </g>
</svg>
