<svg xmlns="http://www.w3.org/2000/svg" width="36" height="36" viewBox="0 0 36 36">
  <title>
    ModalQuestion
  </title>
  <g fill="none" fill-rule="evenodd">
    <path fill="#777777" fill-opacity=".4" d="M18 36C8.059 36 0 27.941 0 18S8.059 0 18 0s18 8.059 18 18-8.059 18-18 18zm0-3c8.284 0 15-6.716 15-15 0-8.284-6.716-15-15-15C9.716 3 3 9.716 3 18c0 8.284 6.716 15 15 15z"/>
    <path fill="#777777" fill-opacity=".7" d="M18 30a3 3 0 1 0 0-6 3 3 0 0 0 0 6zm-2.021-8.351c0-.676.04-1.217.132-1.784.088-.542.233-1.04.436-1.493.203-.452.465-.88.785-1.283.312-.393.693-.809 1.144-1.25.33-.32.64-.624.926-.911.275-.275.517-.557.726-.845.201-.276.36-.57.476-.883.112-.302.168-.642.168-1.02 0-.826-.194-1.446-.586-1.863-.387-.412-.965-.614-1.745-.614-.318 0-.626.044-.926.132a2.18 2.18 0 0 0-.771.404 2.031 2.031 0 0 0-.544.702c-.122.251-.081 1.172-.081 1.713a.35.35 0 0 1-.35.35h-3.56a.35.35 0 0 1-.35-.353c.012-1.107.098-2.56.413-3.235a5.36 5.36 0 0 1 1.442-1.878 6.173 6.173 0 0 1 2.126-1.134c.8-.25 1.667-.375 2.601-.375 1.024 0 1.94.133 2.747.398.818.27 1.515.666 2.088 1.187a5.08 5.08 0 0 1 1.314 1.917c.294.745.442 1.584.442 2.517a5.52 5.52 0 0 1-.33 1.923 7.204 7.204 0 0 1-.862 1.647c-.352.504-.755.987-1.208 1.45-.444.454-.902.902-1.379 1.349-.488.444-.814.926-.976 1.447a5.965 5.965 0 0 0-.273 1.79.35.35 0 0 1-.35.345H16.33a.35.35 0 0 1-.35-.35z"/>
  </g>
</svg>
