<svg xmlns="http://www.w3.org/2000/svg" width="36" height="36" viewBox="0 0 36 36">
  <title>
    ModalExclamation
  </title>
  <g fill="none" fill-rule="evenodd">
    <path fill="#777777" fill-opacity=".4" d="M18 36C8.059 36 0 27.941 0 18S8.059 0 18 0s18 8.059 18 18-8.059 18-18 18zm0-3c8.284 0 15-6.716 15-15 0-8.284-6.716-15-15-15C9.716 3 3 9.716 3 18c0 8.284 6.716 15 15 15z"/>
    <path fill="#777777" fill-opacity=".7" d="M16.069 7h3.862a1 1 0 0 1 .998 1.067l-.867 13a1 1 0 0 1-.998.933h-2.128a1 1 0 0 1-.998-.933l-.867-13A1 1 0 0 1 16.07 7zM18 30a3 3 0 1 1 0-6 3 3 0 0 1 0 6z"/>
  </g>
</svg>
