<svg xmlns="http://www.w3.org/2000/svg" width="12" height="12" viewBox="0 0 12 12">
  <title>
    NewCrossTabReport
  </title>
  <g fill="none" fill-rule="evenodd">
    <rect width="12" height="12" rx="2"/>
    <path fill="#777777" d="M1.5 1h9a.5.5 0 0 1 .5.5v3a.5.5 0 0 1-.5.5h-9a.5.5 0 0 1-.5-.5v-3a.5.5 0 0 1 .5-.5zm0 5h3a.5.5 0 0 1 .5.5v4a.5.5 0 0 1-.5.5h-3a.5.5 0 0 1-.5-.5v-4a.5.5 0 0 1 .5-.5zm5 0h4a.5.5 0 0 1 .5.5v1a.5.5 0 0 1-.5.5h-4a.5.5 0 0 1-.5-.5v-1a.5.5 0 0 1 .5-.5zm0 3h4a.5.5 0 0 1 .5.5v1a.5.5 0 0 1-.5.5h-4a.5.5 0 0 1-.5-.5v-1a.5.5 0 0 1 .5-.5z"/>
  </g>
</svg>
