<svg xmlns="http://www.w3.org/2000/svg" width="100" height="100" viewBox="0 0 100 100">
  <title>
    NoPreview
  </title>
  <g fill="none" fill-rule="evenodd">
    <path fill="#B3B3B3" d="M49.515 21.756c-20.96 0-39.025 12.11-47.324 29.584a1.96 1.96 0 0 0 0 1.688c8.299 17.475 26.364 29.584 47.324 29.584 20.96 0 39.025-12.109 47.324-29.584a1.96 1.96 0 0 0 0-1.688C88.54 33.865 70.475 21.756 49.515 21.756zm0 50.425c-11.836 0-21.42-9.402-21.42-20.992 0-11.6 9.594-20.991 21.42-20.991 11.836 0 21.419 9.401 21.419 20.991s-9.593 20.992-21.42 20.992z"/>
    <ellipse cx="49.515" cy="51.179" fill="#B3B3B3" rx="13.712" ry="13.438"/>
    <polygon fill="#D76A6A" points="91.676 16.162 95.233 12.649 88.207 5.534 84.649 9.047 8.949 83.808 5.392 87.321 12.419 94.437 15.976 90.923"/>
  </g>
</svg>
