<svg xmlns="http://www.w3.org/2000/svg" width="12" height="12" viewBox="0 0 12 12">
  <title>
    OpenRows
  </title>
  <g fill="none" fill-rule="evenodd" transform="translate(-11 -24)">
    <path fill="#777777" fill-rule="nonzero" d="M14 32.874c0 1.102.717 1.455 1.598.79l4.074-3.067c.438-.33.436-.866 0-1.195l-4.074-3.068c-.883-.665-1.598-.305-1.598.79v5.75z"/>
    <g transform="translate(0 35)">
      <rect width="16" height="16"/>
      <path fill="#808080" d="M1 7h13v1H1V7zm0 2h13v1H1V9zm0 2h13v1H1v-1zm0 2h13v1H1v-1zM7 2h1v4H7V2z"/>
    </g>
    <g transform="translate(21 35)">
      <rect width="16" height="16"/>
      <path fill="#808080" d="M1 2h14v1H1V2zm2 2h10v1H3V4zM2 6h12v1H2V6zm2 2h8v1H4V8zm-1 2h10v1H3v-1zm2 2h6v1H5v-1z"/>
    </g>
  </g>
</svg>
