<svg xmlns="http://www.w3.org/2000/svg" width="12" height="12" viewBox="0 0 12 12">
  <title>
    Options
  </title>
  <g fill="none" fill-rule="evenodd">
    <rect width="12" height="12" rx="2"/>
    <path fill="#777777" d="M10.35 4.624l-.302-.735s.705-1.624.642-1.687l-.933-.93c-.064-.064-1.655.677-1.655.677l-.734-.303S6.72 0 6.631 0H5.314c-.091 0-.691 1.65-.691 1.65l-.733.304s-1.624-.706-1.686-.643l-.932.932c-.064.064.677 1.656.677 1.656l-.303.734S0 5.28 0 5.368v1.318c0 .092 1.65.692 1.65.692l.303.733s-.705 1.623-.643 1.686l.933.932c.063.063 1.655-.678 1.655-.678l.734.304S5.28 12 5.369 12h1.317c.091 0 .692-1.65.692-1.65l.734-.304s1.621.706 1.684.644l.933-.932c.065-.065-.678-1.655-.678-1.655l.302-.734S12 6.719 12 6.63V5.314c0-.091-1.65-.69-1.65-.69zM9 6C9 7.653 7.654 9 6 9 4.348 9 3 7.653 3 6c0-1.655 1.348-3 3-3 1.655 0 3 1.345 3 3zM6 7a1 1 0 1 0 0-2 1 1 0 0 0 0 2z"/>
  </g>
</svg>
