<svg xmlns="http://www.w3.org/2000/svg" width="12" height="12" viewBox="0 0 12 12">
  <title>
    PageFooter
  </title>
  <g fill="none" fill-rule="evenodd">
    <rect width="12" height="12" rx="2"/>
    <path fill="#777777" d="M1 0h6.586a1 1 0 0 1 .707.293l3.414 3.414a1 1 0 0 1 .293.707V11a1 1 0 0 1-1 1H.5a.5.5 0 0 1-.5-.5V1a1 1 0 0 1 1-1z"/>
    <path fill="#FFFFFF" d="M1.5 1h5a.5.5 0 0 1 .5.5v3a.5.5 0 0 0 .5.5h3a.5.5 0 0 1 .5.5v5a.5.5 0 0 1-.5.5h-9a.5.5 0 0 1-.5-.5v-9a.5.5 0 0 1 .5-.5zm6.927.927l1.646 1.646A.25.25 0 0 1 9.896 4H8.5a.5.5 0 0 1-.5-.5V2.104a.25.25 0 0 1 .427-.177z"/>
    <rect width="8" height="3" x="2" y="7" fill="#9768ED" rx=".5"/>
  </g>
</svg>
