<svg xmlns="http://www.w3.org/2000/svg" width="24" height="24" viewBox="0 0 24 24">
  <title>
    ParametersMenu
  </title>
  <g fill="none" fill-rule="evenodd">
    <rect width="24" height="24"/>
    <path fill="#777777" d="M9 6h10a1 1 0 0 1 0 2H9V6zm-4 5h10v2H5a1 1 0 0 1 0-2zm0 5h3v2H5a1 1 0 0 1 0-2zm7 0h7a1 1 0 0 1 0 2h-7v-2z"/>
    <path fill="#777777" fill-rule="nonzero" d="M7 10a3 3 0 1 1 0-6 3 3 0 0 1 0 6zm0-2a1 1 0 1 0 0-2 1 1 0 0 0 0 2zm10 7a3 3 0 1 1 0-6 3 3 0 0 1 0 6zm0-2a1 1 0 1 0 0-2 1 1 0 0 0 0 2zm-7 7a3 3 0 1 1 0-6 3 3 0 0 1 0 6zm0-2a1 1 0 1 0 0-2 1 1 0 0 0 0 2z"/>
  </g>
</svg>
