<svg xmlns="http://www.w3.org/2000/svg" width="100" height="100" viewBox="0 0 100 100">
  <title>
    RadialMenuSort
  </title>
  <g fill="none" fill-rule="evenodd">
    <path fill="#FFFFFF" stroke="#6896ED" d="M80.758 80.76c-16.988 16.988-44.53 16.988-61.518 0l19.799-19.799c6.053 6.053 15.867 6.053 21.92 0l19.8 19.8z"/>
    <polygon fill="#6896ED" points="56 80 64 80 60 84 56 80"/>
    <polygon fill="#6896ED" points="64 77 56 77 60 73 64 77 64 77"/>
    <path fill="#6896ED" d="M42.875 81.945h-3.518L38.742 84H36l3.905-11h2.414l3.934 11h-2.757l-.621-2.055zm-2.904-2.047h2.29l-1.149-3.816-1.14 3.816zm9.939 2.062H55V84h-8.293v-1.398l5.075-7.555h-5.105V73h8.272v1.36l-5.04 7.6z"/>
  </g>
</svg>
