<svg xmlns="http://www.w3.org/2000/svg" width="100" height="100" viewBox="0 0 100 100">
  <title>
    RadialMenuFilter
  </title>
  <g fill="none" fill-rule="evenodd">
    <path fill="#FFFFFF" stroke="#6896ED" d="M61 39.04l19.799-19.8c16.988 16.988 16.988 44.53 0 61.518L61 60.96c6.053-6.053 6.053-15.867 0-21.92z"/>
    <path fill="#6896ED" d="M77.062 51.003c0-.554-.277-1.347-.63-1.785l-4.566-5.657C71.17 42.7 71.502 42 72.61 42h12.884c1.107 0 1.442.696.743 1.561l-4.567 5.657c-.349.432-.63 1.22-.63 1.785l.001 4.994c0 .554-.456 1.003-1.003 1.003h-1.972a.997.997 0 0 1-1.004-1.003v-4.994z"/>
  </g>
</svg>
