<svg xmlns="http://www.w3.org/2000/svg" width="12" height="12" viewBox="0 0 12 12">
  <title>
    ReadSchemaSelected
  </title>
  <g fill="#FFFFFF" fill-rule="evenodd">
    <path fill-opacity=".5" d="M9 4V3h1a1 1 0 0 1 1 1.01V7h-1V4H9zM3 3H2a1 1 0 0 0-1 1.01V7h1V4h1V3z"/>
    <path d="M7 8c0-.552.444-1 1-1h3c.552 0 1 .444 1 1v3c0 .552-.444 1-1 1H8c-.552 0-1-.444-1-1V8zm1 .999v1.002c0 .556.447.999.999.999h1.002a.996.996 0 0 0 .999-.999V8.999A.996.996 0 0 0 10.001 8H8.999A.996.996 0 0 0 8 8.999zm-8-1C0 7.449.444 7 1 7h3c.552 0 1 .444 1 1v3c0 .552-.444 1-1 1H1c-.552 0-1-.444-1-1V8zm1 1v1.002c0 .556.447.999.999.999h1.002A.996.996 0 0 0 4 10.001V8.999A.996.996 0 0 0 3.001 8H1.999A.996.996 0 0 0 1 8.999zM3 .991C3 .444 3.451 0 3.99 0h4.02c.546 0 .99.451.99.99v4.02c0 .546-.451.99-.99.99H3.99A.996.996 0 0 1 3 5.01V.99zm1 1.018v1.982C4 4.557 4.452 5 5.01 5h1.98C7.558 5 8 4.548 8 3.99V2.01C8 1.442 7.548 1 6.99 1H5.01C4.442 1 4 1.452 4 2.01z"/>
    <rect width="3" height="3" x="8" y="8" fill-opacity=".5"/>
    <rect width="3" height="3" x="1" y="8" fill-opacity=".5"/>
    <rect width="4" height="4" x="4" y="1" fill-opacity=".5"/>
  </g>
</svg>
