<svg xmlns="http://www.w3.org/2000/svg" width="12" height="12" viewBox="0 0 12 12">
  <title>
    RepeatingGroup
  </title>
  <g fill="none" fill-rule="evenodd">
    <rect width="12" height="12" rx="2"/>
    <path fill="#777777" d="M1 0h10a1 1 0 0 1 1 1v10a1 1 0 0 1-1 1H1a1 1 0 0 1-1-1V1a1 1 0 0 1 1-1z"/>
    <rect width="10" height="10" x="1" y="1" fill="#FFFFFF" rx=".25"/>
    <path fill="#68ED90" d="M2.5 2h7a.5.5 0 0 1 .5.5v1a.5.5 0 0 1-.5.5h-7a.5.5 0 0 1-.5-.5v-1a.5.5 0 0 1 .5-.5zm0 3h7a.5.5 0 0 1 .5.5v1a.5.5 0 0 1-.5.5h-7a.5.5 0 0 1-.5-.5v-1a.5.5 0 0 1 .5-.5zm0 3h7a.5.5 0 0 1 .5.5v1a.5.5 0 0 1-.5.5h-7a.5.5 0 0 1-.5-.5v-1a.5.5 0 0 1 .5-.5z"/>
  </g>
</svg>
