<svg xmlns="http://www.w3.org/2000/svg" width="27" height="18" viewBox="0 0 27 18">
  <title>
    ReportOptions
  </title>
  <g fill="#808080" fill-rule="evenodd">
    <path d="M14.801 7.165l-.404-.98s.94-2.165.857-2.249l-1.244-1.24c-.086-.086-2.207.903-2.207.903l-.979-.404S9.96 1 9.842 1H8.086c-.122 0-.922 2.2-.922 2.2l-.977.405s-2.165-.94-2.248-.856L2.696 3.99c-.086.085.903 2.207.903 2.207l-.404.979S1 8.04 1 8.157v1.758c0 .122 2.2.923 2.2.923l.404.977s-.94 2.164-.857 2.247l1.243 1.244c.085.084 2.207-.905 2.207-.905l.979.405S8.04 17 8.159 17h1.756c.121 0 .922-2.2.922-2.2l.98-.405s2.16.94 2.244.858l1.244-1.242c.087-.087-.904-2.208-.904-2.208l.403-.978S17 9.959 17 9.84V8.085c0-.122-2.199-.92-2.199-.92zm-3.232 1.78a2.57 2.57 0 0 1-2.567 2.565 2.57 2.57 0 0 1-2.567-2.566A2.57 2.57 0 0 1 9.002 6.38a2.568 2.568 0 0 1 2.567 2.564z"/>
    <polygon points="22.723 11.309 20.414 9 19 10.414 22.707 14.121 26.414 10.414 25 9"/>
  </g>
</svg>
