<svg xmlns="http://www.w3.org/2000/svg" width="24" height="24" viewBox="0 0 24 24">
  <title>
    ReportSearch
  </title>
  <g fill="none" fill-rule="evenodd">
    <rect width="24" height="24"/>
    <path fill="#777777" d="M11.495 16.998A5.497 5.497 0 0 1 6 11.498 5.497 5.497 0 0 1 11.495 6a5.497 5.497 0 0 1 5.495 5.499 5.476 5.476 0 0 1-.8 2.858l2.425 2.415c.394.392.39 1.03.002 1.416l-.43.428a1.002 1.002 0 0 1-1.421 0l-2.423-2.413a5.467 5.467 0 0 1-2.848.795zm3.402-5.5a3.403 3.403 0 1 0-3.402 3.405 3.403 3.403 0 0 0 3.402-3.404z"/>
  </g>
</svg>
