<svg xmlns="http://www.w3.org/2000/svg" width="16" height="16" viewBox="0 0 16 16">
  <title>
    Save
  </title>
  <path fill="#777777" fill-rule="evenodd" d="M12 15v-3.997A.993.993 0 0 0 11.003 10H4.997C4.453 10 4 10.449 4 11.003V15h-.994A2.005 2.005 0 0 1 1 12.994V3.006C1 1.898 1.897 1 3.006 1h9.988C14.102 1 15 1.897 15 3.006v9.988A2.005 2.005 0 0 1 12.994 15H12zM4 4v3c0 .556.446 1 .997 1h6.006c.544 0 .997-.448.997-1V4c0-.556-.446-1-.997-1H4.997C4.453 3 4 3.448 4 4zm2 8.999A.999.999 0 0 1 7.01 12h1.98c.558 0 1.01.443 1.01.999v1.002A.999.999 0 0 1 8.99 15H7.01C6.451 15 6 14.557 6 14.001v-1.002z"/>
</svg>
