<svg xmlns="http://www.w3.org/2000/svg" width="24" height="24" viewBox="0 0 24 24">
  <title>
    SettingsMenuSelected
  </title>
  <g fill="none" fill-rule="evenodd">
    <rect width="24" height="24"/>
    <path fill="#6896ED" d="M16.723 9.537s.822-1.895.75-1.968l-1.09-1.085c-.075-.075-1.93.79-1.93.79l-.857-.353S12.84 5 12.736 5H11.2c-.107 0-.807 1.925-.807 1.925l-.854.354S7.644 6.456 7.57 6.53L6.484 7.617c-.075.075.79 1.931.79 1.931l-.353.857S5 11.16 5 11.262V12.8c0 .108 1.925.808 1.925.808l.354.855s-.823 1.894-.75 1.966l1.088 1.089c.074.073 1.93-.792 1.93-.792l.857.355S11.16 19 11.264 19h1.537c.106 0 .806-1.925.806-1.925l.858-.354s1.89.823 1.964.75l1.088-1.087c.076-.076-.791-1.931-.791-1.931l.353-.856S19 12.84 19 12.737V11.2c0-.107-1.924-.805-1.924-.805l-.353-.858zM12 14.333A2.338 2.338 0 0 1 9.667 12 2.336 2.336 0 0 1 12 9.667a2.336 2.336 0 0 1 2.333 2.332A2.337 2.337 0 0 1 12 14.333z"/>
  </g>
</svg>
