<svg xmlns="http://www.w3.org/2000/svg" width="24" height="24" viewBox="0 0 24 24">
  <title>
    ShowVizRemove
  </title>
  <g fill="none" fill-rule="evenodd">
    <rect width="24" height="24"/>
    <path fill="#6896ED" d="M18 16.222V6.007C18 5.45 17.553 5 17.001 5h-1.002A1 1 0 0 0 15 6.007v11.182a2.005 2.005 0 0 1 3-.967zM5 13.991c0-.547.443-.991.999-.991h1.002a1 1 0 0 1 .999.99v4.02c0 .546-.443.99-.999.99H5.999A1 1 0 0 1 5 18.01v-4.02zm5-3.996c0-.55.443-.995.999-.995h1.002c.552 0 .999.456.999.995v8.01c0 .55-.443.995-.999.995h-1.002c-.552 0-.999-.456-.999-.995v-8.01z"/>
    <path fill="#DA7A7A" d="M20.414 20l1.417-1.416a1.003 1.003 0 0 0-.003-1.412.996.996 0 0 0-1.412-.003L19 18.586l-1.416-1.417a1.003 1.003 0 0 0-1.412.003.996.996 0 0 0-.003 1.412L17.586 20l-1.417 1.416a1.003 1.003 0 0 0 .003 1.412.996.996 0 0 0 1.412.003L19 21.414l1.416 1.417a1.003 1.003 0 0 0 1.412-.003.996.996 0 0 0 .003-1.412L20.414 20z"/>
  </g>
</svg>
