<svg xmlns="http://www.w3.org/2000/svg" width="24" height="24" viewBox="0 0 24 24">
  <title>
    ShowVizDisabled
  </title>
  <g fill="none" fill-rule="evenodd">
    <rect width="24" height="24"/>
    <path fill="#777777" fill-opacity=".5" d="M18 15.266c-.598.345-1 .99-1 1.731V18h-1.003c-.35 0-.678.09-.964.25a1.018 1.018 0 0 1-.033-.257V6.007A1 1 0 0 1 15.999 5h1.002c.552 0 .999.45.999 1.007v9.26zM5 13.991c0-.547.443-.991.999-.991h1.002a1 1 0 0 1 .999.99v4.02c0 .546-.443.99-.999.99H5.999A1 1 0 0 1 5 18.01v-4.02zm5-3.996c0-.55.443-.995.999-.995h1.002c.552 0 .999.456.999.995v8.01c0 .55-.443.995-.999.995h-1.002c-.552 0-.999-.456-.999-.995v-8.01z"/>
    <path fill="#777777" fill-opacity=".5" fill-rule="nonzero" d="M20 19v-2.003c0-.544-.448-.997-1-.997-.556 0-1 .446-1 .997V19h-2.003c-.544 0-.997.448-.997 1 0 .556.446 1 .997 1H18v2.003c0 .544.448.997 1 .997.556 0 1-.446 1-.997V21h2.003c.544 0 .997-.448.997-1 0-.556-.446-1-.997-1H20z"/>
  </g>
</svg>
