<svg xmlns="http://www.w3.org/2000/svg" width="24" height="24" viewBox="0 0 24 24">
  <title>
    SortsMenuDisabled
  </title>
  <g fill="none" fill-rule="evenodd">
    <rect width="24" height="24"/>
    <path fill="#8B8B8B" d="M17.034 12.967h-2.368c-.554 0-.756.369-.45.825l3.266 4.866c.306.456.802.456 1.108 0l3.266-4.866c.306-.456.108-.825-.45-.825h-2.368V5.993c0-.536-.449-.993-1.002-.993a.995.995 0 0 0-1.002.993v6.974zM2 7.007A2 2 0 0 1 4.004 5h6.014c1.107 0 2.004.895 2.004 2.006V8.97a2 2 0 0 1-2.004 2.006H4.004A2.003 2.003 0 0 1 2 8.97V7.006zm2.004.98c0 .554.445.996.993.996h4.028a1 1 0 0 0 .993-.995.992.992 0 0 0-.993-.996H4.997a1 1 0 0 0-.993.996zM2 14.974a2 2 0 0 1 2.004-2.006h6.014c1.107 0 2.004.894 2.004 2.006v1.963a2 2 0 0 1-2.004 2.006H4.004A2.003 2.003 0 0 1 2 16.936v-1.963zm2.004.982c0 .553.445.995.993.995h4.028a1 1 0 0 0 .993-.995.992.992 0 0 0-.993-.996H4.997a1 1 0 0 0-.993.996z" opacity=".4"/>
  </g>
</svg>
