<svg xmlns="http://www.w3.org/2000/svg" width="24" height="24" viewBox="0 0 24 24">
  <title>
    SortsMenu
  </title>
  <g fill="none" fill-rule="evenodd">
    <rect width="24" height="24"/>
    <path fill="#777777" d="M17.034 12.967V5.993A.995.995 0 0 1 18.036 5c.553 0 1.002.457 1.002.993v6.974h2.369c.557 0 .755.37.45.825l-3.267 4.866c-.306.456-.802.456-1.108 0l-3.266-4.866c-.306-.456-.104-.825.45-.825h2.368zM2 7.007A2 2 0 0 1 4.004 5h6.014c1.107 0 2.004.895 2.004 2.006V8.97a2 2 0 0 1-2.004 2.006H4.004A2.003 2.003 0 0 1 2 8.97V7.006zm2.004.98c0 .554.445.996.993.996h4.028a1 1 0 0 0 .993-.995.992.992 0 0 0-.993-.996H4.997a1 1 0 0 0-.993.996zM2 14.974a2 2 0 0 1 2.004-2.006h6.014c1.107 0 2.004.894 2.004 2.006v1.963a2 2 0 0 1-2.004 2.006H4.004A2.003 2.003 0 0 1 2 16.936v-1.963zm2.004.982c0 .553.445.995.993.995h4.028a1 1 0 0 0 .993-.995.992.992 0 0 0-.993-.996H4.997a1 1 0 0 0-.993.996z"/>
  </g>
</svg>
