<svg xmlns="http://www.w3.org/2000/svg" width="16" height="16" viewBox="0 0 16 16">
  <title>
    SplitCells
  </title>
  <g fill="none" fill-rule="evenodd">
    <rect width="16" height="13" y="2" fill="#808080"/>
    <rect width="14" height="11" x="1" y="3" fill="#FFFFFF"/>
    <polygon fill="#B3B3B3" points="3 10 3 6 1 6 1 5 3 5 3 3 4 3 4 5 9 5 9 3 10 3 10 5 15 5 15 6 4 6 4 14 3 14 3 11 1 11 1 10"/>
    <path fill="#D9D9D9" d="M12 8h-2V6H9v2H7V6H6v2H4v1h2v2H4v1h2v2h1v-2h2v2h1v-2h2v2h1v-2h2v-1h-2V9h2V8h-2V6h-1v2zm0 1h-2v2h2V9zm-3 2H7V9h2v2z"/>
  </g>
</svg>
