<svg xmlns="http://www.w3.org/2000/svg" width="16" height="16" viewBox="0 0 16 16">
  <title>
    StyleUnderline
  </title>
  <g fill="#808080" fill-rule="evenodd">
    <path d="M8.984 3.24V3h2.987v.24h-.317a.85.85 0 0 0-.766.434c-.087.134-.13.446-.13.934v2.566c0 .882-.085 1.566-.253 2.053-.168.486-.498.903-.99 1.251-.491.348-1.16.522-2.007.522-.92 0-1.62-.166-2.097-.5A2.689 2.689 0 0 1 4.396 9.16c-.132-.385-.199-1.107-.199-2.166V4.556c0-.54-.071-.895-.214-1.063-.144-.169-.375-.253-.694-.253H2.97V3h3.647v.24h-.323c-.349 0-.598.114-.747.344-.104.155-.156.48-.156.972v2.832c0 .342.03.733.09 1.174.06.44.17.785.327 1.03a1.8 1.8 0 0 0 .682.61c.297.16.66.24 1.092.24.552 0 1.046-.125 1.482-.376.435-.25.733-.571.893-.963.16-.39.24-1.053.24-1.987v-2.56c0-.549-.059-.892-.175-1.03-.162-.191-.402-.286-.722-.286h-.317z"/>
    <path d="M8.984 3.24V3h2.987v.24h-.317a.85.85 0 0 0-.766.434c-.087.134-.13.446-.13.934v2.566c0 .882-.085 1.566-.253 2.053-.168.486-.498.903-.99 1.251-.491.348-1.16.522-2.007.522-.92 0-1.62-.166-2.097-.5A2.689 2.689 0 0 1 4.396 9.16c-.132-.385-.199-1.107-.199-2.166V4.556c0-.54-.071-.895-.214-1.063-.144-.169-.375-.253-.694-.253H2.97V3h3.647v.24h-.323c-.349 0-.598.114-.747.344-.104.155-.156.48-.156.972v2.832c0 .342.03.733.09 1.174.06.44.17.785.327 1.03a1.8 1.8 0 0 0 .682.61c.297.16.66.24 1.092.24.552 0 1.046-.125 1.482-.376.435-.25.733-.571.893-.963.16-.39.24-1.053.24-1.987v-2.56c0-.549-.059-.892-.175-1.03-.162-.191-.402-.286-.722-.286h-.317z"/>
    <path d="M8.984 3.24V3h2.987v.24h-.317a.85.85 0 0 0-.766.434c-.087.134-.13.446-.13.934v2.566c0 .882-.085 1.566-.253 2.053-.168.486-.498.903-.99 1.251-.491.348-1.16.522-2.007.522-.92 0-1.62-.166-2.097-.5A2.689 2.689 0 0 1 4.396 9.16c-.132-.385-.199-1.107-.199-2.166V4.556c0-.54-.071-.895-.214-1.063-.144-.169-.375-.253-.694-.253H2.97V3h3.647v.24h-.323c-.349 0-.598.114-.747.344-.104.155-.156.48-.156.972v2.832c0 .342.03.733.09 1.174.06.44.17.785.327 1.03a1.8 1.8 0 0 0 .682.61c.297.16.66.24 1.092.24.552 0 1.046-.125 1.482-.376.435-.25.733-.571.893-.963.16-.39.24-1.053.24-1.987v-2.56c0-.549-.059-.892-.175-1.03-.162-.191-.402-.286-.722-.286h-.317z"/>
    <rect width="11" height="1" x="2" y="12"/>
  </g>
</svg>
