<svg xmlns="http://www.w3.org/2000/svg" width="12" height="12" viewBox="0 0 12 12">
  <title>
    TabCSVSelected
  </title>
  <path fill="#6896ED" fill-rule="evenodd" d="M3.5 2.1L5 0h2L4.5 3.5 7 7H5L3.5 4.9 2 7H0l2.5-3.5L0 0h2l1.5 2.1zM9 8h1a1 1 0 0 1 1 1v1a1 1 0 0 1-1 1H9a1 1 0 0 1-1-1V9a1 1 0 0 1 1-1zm0-4h1a1 1 0 0 1 1 1v1a1 1 0 0 1-1 1H9a1 1 0 0 1-1-1V5a1 1 0 0 1 1-1zm0-4h1a1 1 0 0 1 1 1v1a1 1 0 0 1-1 1H9a1 1 0 0 1-1-1V1a1 1 0 0 1 1-1zM5 8h1a1 1 0 0 1 1 1v1a1 1 0 0 1-1 1H5a1 1 0 0 1-1-1V9a1 1 0 0 1 1-1zM1 8h1a1 1 0 0 1 1 1v1a1 1 0 0 1-1 1H1a1 1 0 0 1-1-1V9a1 1 0 0 1 1-1z"/>
</svg>
