<svg xmlns="http://www.w3.org/2000/svg" width="12" height="12" viewBox="0 0 12 12">
  <title>
    TabHelp
  </title>
  <path fill="#D5D5D5" fill-rule="evenodd" d="M6 11A5 5 0 1 1 6 1a5 5 0 0 1 0 10zm-.735-2.495a.79.79 0 0 0 .052.288.666.666 0 0 0 .379.387c.09.037.192.055.304.055a.802.802 0 0 0 .304-.055.666.666 0 0 0 .38-.387.79.79 0 0 0 .051-.288.804.804 0 0 0-.052-.293.69.69 0 0 0-.379-.39A.772.772 0 0 0 6 7.765a.772.772 0 0 0-.304.057.69.69 0 0 0-.379.39.804.804 0 0 0-.052.293zM6 2.667c-1.111 0-2.195.992-2.222 2.221h1.389c0-.61.152-1.11.833-1.11.278 0 .784.143.784.668.028.928-1.211.79-1.34 2.277v.387h1.111v-.327c.156-1.04 1.667-.816 1.667-2.458 0-.653-.555-1.658-2.222-1.658z"/>
</svg>
