<svg xmlns="http://www.w3.org/2000/svg" width="12" height="12" viewBox="0 0 12 12">
  <title>
    TabPDFSelected
  </title>
  <path fill="#6896ED" d="M11.812 8.163c.252.507.251 1.086-.004 1.593-.347.685-.985 1.106-1.738 1.106-.976 0-1.984-.67-3.136-1.94a5.204 5.204 0 0 0-.728.07c-.173.03-.434.067-.598.086a5.64 5.64 0 0 0-.613.105C4.006 11.02 3.034 12 1.873 12c-.566 0-1.07-.253-1.448-.697A1.787 1.787 0 0 1 .055 9.7c.263-1.073 1.55-2.07 3.179-2.684L3.3 6.87c.585-1.287.727-3.009.588-4.669a14.833 14.833 0 0 1-.084-.633c-.048-.438-.022-.718.27-1.093C4.313.18 4.67 0 5.055 0c.51 0 .911.282 1.118.69.1.198.131.339.16.559.025.195.048.412.06.581.262 1.708.796 3.34 1.64 4.422l.101.128c1.695.18 3.182.776 3.68 1.783zm-10.56 2.435c.127.148.256.217.406.217.558 0 1.382-.893 2.242-2.415-1.523.629-2.565 1.495-2.689 2.001-.021.085-.01.137.042.197zm4.029-4.072c.158-.018.413-.055.57-.083.325-.056.676-.09 1.049-.1l-.058-.074c-.645-.827-1.176-1.89-1.584-3.168-.101 1.344-.376 2.516-.82 3.494a19.85 19.85 0 0 1-.038.082 7.79 7.79 0 0 1 .88-.15zm4.91 2.847c.223 0 .378-.1.488-.318.027-.055.027-.086-.001-.143C10.482 8.515 9.39 8.01 7.9 7.8c.963 1.018 1.768 1.573 2.291 1.573z"/>
</svg>
