<svg xmlns="http://www.w3.org/2000/svg" width="12" height="12" viewBox="0 0 12 12">
  <title>
    TabPDF
  </title>
  <path fill="#D5D5D5" d="M11.812 8.163c.252.507.251 1.086-.004 1.593-.347.685-.985 1.106-1.738 1.106-.976 0-1.984-.67-3.136-1.94a5.204 5.204 0 0 0-.728.07c-.173.03-.434.067-.598.086a5.64 5.64 0 0 0-.613.105C4.006 11.02 3.034 12 1.873 12c-.566 0-1.07-.253-1.448-.696a1.787 1.787 0 0 1-.37-1.605c.263-1.073 1.55-2.07 3.179-2.683L3.3 6.87c.585-1.287.727-3.009.588-4.669a14.833 14.833 0 0 1-.084-.633c-.048-.438-.022-.718.27-1.093C4.313.18 4.67 0 5.055 0c.51 0 .911.282 1.118.691.1.197.131.338.16.558.025.195.048.412.06.582.262 1.707.796 3.34 1.64 4.42l.101.129c1.695.18 3.182.776 3.68 1.783zM1.658 10.815c.558 0 1.382-.893 2.242-2.415-1.523.629-2.565 1.496-2.689 2.001-.021.085-.01.137.042.197.126.148.255.217.405.217zm4.194-4.371c.324-.057.675-.09 1.048-.1l-.058-.075c-.645-.827-1.176-1.89-1.584-3.168-.101 1.344-.376 2.516-.82 3.494l-.038.082a7.79 7.79 0 0 1 .88-.15c.159-.02.414-.056.572-.083zm4.34 2.93c.222 0 .377-.101.487-.318.027-.056.027-.086-.001-.144C10.482 8.515 9.39 8.01 7.9 7.8c.963 1.018 1.768 1.573 2.291 1.573z"/>
</svg>
