<svg xmlns="http://www.w3.org/2000/svg" width="12" height="12" viewBox="0 0 12 12">
  <title>
    TabScheduleEditSelected
  </title>
  <path fill="#6896ED" fill-rule="evenodd" d="M4.999 10.977a5.5 5.5 0 1 1 3.754-9.912l-.293.63-.668 1.43A3.29 3.29 0 0 0 6 2.239V6H5V2.238a3.3 3.3 0 0 0 .153 6.544l-.37.792L5 10.977zm4.635-1.849a5.48 5.48 0 0 0 1.303-2.794L9.634 9.128zM6 6.967L5.985 7H3V6h3v.967zm6.105-5.5l-.852 1.825-2-.932.852-1.826 2 .932zm-1.162 2.489l-3.125 6.699L6.12 11.69l-.302-1.969 3.125-6.698 2 .932z"/>
</svg>
