<?xml version="1.0" encoding="UTF-8"?>
<svg width="24px" height="24px" viewBox="0 0 24 24" version="1.1" xmlns="http://www.w3.org/2000/svg" xmlns:xlink="http://www.w3.org/1999/xlink">
    <!-- Generator: Sketch 46.2 (44496) - http://www.bohemiancoding.com/sketch -->
    <title>TileModeVizSelected</title>
    <desc>Created with Sketch.</desc>
    <defs></defs>
    <g stroke="none" stroke-width="1" fill="none" fill-rule="evenodd">
        <g transform="translate(-54.000000, -140.000000)">
            <g transform="translate(54.000000, 140.000000)">
                <rect x="0" y="0" width="24" height="24"></rect>
                <path d="M5,13 L7,13 L7,13 C7.55228475,13 8,13.4477153 8,14 L8,19 L8,19 C8,19.5522847 7.55228475,20 7,20 L5,20 L5,20 C4.44771525,20 4,19.5522847 4,19 L4,14 L4,14 C4,13.4477153 4.44771525,13 5,13 L5,13 Z M11,9 L13,9 L13,9 C13.5522847,9 14,9.44771525 14,10 L14,19 C14,19.5522847 13.5522847,20 13,20 L11,20 L11,20 C10.4477153,20 10,19.5522847 10,19 L10,10 L10,10 C10,9.44771525 10.4477153,9 11,9 L11,9 Z M17,5 L19,5 L19,5 C19.5522847,5 20,5.44771525 20,6 L20,19 L20,19 C20,19.5522847 19.5522847,20 19,20 L17,20 C16.4477153,20 16,19.5522847 16,19 L16,6 L16,6 C16,5.44771525 16.4477153,5 17,5 L17,5 Z" fill="#6896ED"></path>
            </g>
        </g>
    </g>
</svg>