<?xml version="1.0" encoding="UTF-8"?>
<svg width="24px" height="24px" viewBox="0 0 24 24" version="1.1" xmlns="http://www.w3.org/2000/svg" xmlns:xlink="http://www.w3.org/1999/xlink">
    <!-- Generator: Sketch 46.2 (44496) - http://www.bohemiancoding.com/sketch -->
    <title>TileModeTabularSelected</title>
    <desc>Created with Sketch.</desc>
    <defs></defs>
    <g stroke="none" stroke-width="1" fill="none" fill-rule="evenodd">
        <g transform="translate(-54.000000, -111.000000)">
            <g transform="translate(54.000000, 111.000000)">
                <rect x="0" y="0" width="24" height="24"></rect>
                <path d="M3,5.99998636 L6,5.99998636 L6,5.99998636 C6.55228475,5.99998636 7,6.44770161 7,6.99998636 L7,7.99994543 L7,7.99994543 C7,8.55223018 6.55228475,8.99994543 6,8.99994543 L3,8.99994543 L3,8.99994543 C2.44771525,8.99994543 2,8.55223018 2,7.99994543 L2,6.99998636 L2,6.99998636 C2,6.44770161 2.44771525,5.99998636 3,5.99998636 L3,5.99998636 Z M10,5.99998636 L21,5.99998636 L21,5.99998636 C21.5522847,5.99998636 22,6.44770161 22,6.99998636 L22,7.99994543 C22,8.55223018 21.5522847,8.99994543 21,8.99994543 L10,8.99994543 C9.44771525,8.99994543 9,8.55223018 9,7.99994543 L9,6.99998636 L9,6.99998636 C9,6.44770161 9.44771525,5.99998636 10,5.99998636 L10,5.99998636 Z M3,10.9999864 L6,10.9999864 L6,10.9999864 C6.55228475,10.9999864 7,11.4477016 7,11.9999864 L7,12.9999454 L7,12.9999454 C7,13.5522302 6.55228475,13.9999454 6,13.9999454 L3,13.9999454 L3,13.9999454 C2.44771525,13.9999454 2,13.5522302 2,12.9999454 L2,11.9999864 L2,11.9999864 C2,11.4477016 2.44771525,10.9999864 3,10.9999864 L3,10.9999864 Z M10,10.9999864 L21,10.9999864 C21.5522847,10.9999864 22,11.4477016 22,11.9999864 L22,12.9999454 C22,13.5522302 21.5522847,13.9999454 21,13.9999454 L10,13.9999454 C9.44771525,13.9999454 9,13.5522302 9,12.9999454 L9,11.9999864 C9,11.4477016 9.44771525,10.9999864 10,10.9999864 Z M3,15.9999864 L6,15.9999864 L6,15.9999864 C6.55228475,15.9999864 7,16.4477016 7,16.9999864 L7,17.9999454 L7,17.9999454 C7,18.5522302 6.55228475,18.9999454 6,18.9999454 L3,18.9999454 L3,18.9999454 C2.44771525,18.9999454 2,18.5522302 2,17.9999454 L2,16.9999864 L2,16.9999864 C2,16.4477016 2.44771525,15.9999864 3,15.9999864 L3,15.9999864 Z M10,15.9999864 L21,15.9999864 C21.5522847,15.9999864 22,16.4477016 22,16.9999864 L22,17.9999454 C22,18.5522302 21.5522847,18.9999454 21,18.9999454 L10,18.9999454 C9.44771525,18.9999454 9,18.5522302 9,17.9999454 L9,16.9999864 C9,16.4477016 9.44771525,15.9999864 10,15.9999864 Z" fill="#6896ED"></path>
            </g>
        </g>
    </g>
</svg>