<svg xmlns="http://www.w3.org/2000/svg" width="24" height="24" viewBox="0 0 24 24">
  <title>
    TileNewTextbox
  </title>
  <g fill="none" fill-rule="evenodd">
    <rect width="24" height="24"/>
    <path fill="#6896ED" d="M9.659 15.3h-4.82l-.916 2.672H1L5.966 5h2.548l4.993 12.972h-2.923l-.925-2.673zM5.58 13.133h3.336L7.24 8.28 5.58 13.134zm14.743 4.838a2.801 2.801 0 0 1-.265-.864 3.45 3.45 0 0 1-1.013.74c-.406.201-.902.302-1.489.302-.476 0-.92-.071-1.333-.214a3.326 3.326 0 0 1-1.072-.597 2.753 2.753 0 0 1-.71-.913 2.633 2.633 0 0 1-.257-1.163c0-.504.097-.953.289-1.345.192-.392.481-.724.866-.998.385-.273.863-.48 1.434-.623.571-.143 1.235-.214 1.993-.214h1.182v-.553c0-.445-.118-.801-.353-1.069-.235-.267-.606-.4-1.113-.4-.446 0-.796.103-1.05.311-.253.208-.38.493-.38.856h-2.648c0-.416.1-.811.298-1.185.199-.375.481-.701.848-.98.366-.28.809-.5 1.328-.664.52-.163 1.1-.245 1.741-.245.574 0 1.106.071 1.594.214.49.142.91.355 1.265.637.354.282.63.635.83 1.06.198.425.297.919.297 1.483v4.08c0 .274.01.519.027.736.019.216.043.412.074.588a2.751 2.751 0 0 0 .293.869v.15h-2.676zm-2.19-1.79a2.338 2.338 0 0 0 1.146-.29c.153-.087.285-.186.398-.299.113-.113.204-.229.27-.347v-1.658h-1.09c-.348 0-.65.038-.907.112a1.777 1.777 0 0 0-.632.312 1.25 1.25 0 0 0-.366.472 1.46 1.46 0 0 0-.12.592c0 .321.116.585.349.793.232.208.55.312.953.312z"/>
  </g>
</svg>
