<svg xmlns="http://www.w3.org/2000/svg" width="24" height="24" viewBox="0 0 24 24">
  <title>
    TileNewURL
  </title>
  <g fill="none" fill-rule="evenodd">
    <rect width="24" height="24"/>
    <path fill="#6896ED" d="M11.545 7.5a1.19 1.19 0 0 1-1.706-.01l-1.34-1.354a2.376 2.376 0 0 0-3.395.002 2.44 2.44 0 0 0-.001 3.432l3.4 3.437a2.376 2.376 0 0 0 3.394-.001l.856-.866a1.184 1.184 0 0 1 1.691.007 1.224 1.224 0 0 1 0 1.717l-.85.859a4.769 4.769 0 0 1-6.788.003l-3.403-3.44C1.529 9.39 1.535 6.313 3.406 4.42a4.769 4.769 0 0 1 6.79-.004l1.35 1.365a1.22 1.22 0 0 1 0 1.717zm.91 9a1.19 1.19 0 0 1 1.706.01l1.34 1.354a2.376 2.376 0 0 0 3.395-.002 2.44 2.44 0 0 0 .001-3.432l-3.4-3.437a2.376 2.376 0 0 0-3.394.001l-.856.866c-.465.47-1.219.47-1.691-.007a1.224 1.224 0 0 1 0-1.717l.85-.859a4.769 4.769 0 0 1 6.788-.003l3.403 3.44c1.874 1.895 1.868 4.972-.003 6.865a4.769 4.769 0 0 1-6.79.004l-1.35-1.365a1.22 1.22 0 0 1 0-1.717z"/>
  </g>
</svg>
