<svg xmlns="http://www.w3.org/2000/svg" width="24" height="24" viewBox="0 0 24 24">
  <title>
    TileNewImage
  </title>
  <g fill="none" fill-rule="evenodd">
    <rect width="24" height="24"/>
    <path fill="#6896ED" d="M2 4.995C2 3.893 2.898 3 3.99 3h16.02C21.108 3 22 3.893 22 4.995v14.01A1.997 1.997 0 0 1 20.01 21H3.99C2.892 21 2 20.107 2 19.005V4.995zm2 1.007v9.996c0 .546.297.672.664.264L8.5 12l3.5 4 4.202-2 3.011 2.378c.437.345.787.173.787-.38V6.002C20 5.456 19.552 5 19 5H5a1 1 0 0 0-1 1.002zM15 12a3 3 0 1 1 0-6 3 3 0 0 1 0 6z"/>
  </g>
</svg>
