<svg xmlns="http://www.w3.org/2000/svg" width="12" height="12" viewBox="0 0 12 12">
  <title>
    TooltipCloseButton
  </title>
  <path fill="#FFFFFF" fill-rule="evenodd" d="M10.646 2.075l-.721-.721a.5.5 0 0 0-.707 0L6.354 4.218a.5.5 0 0 1-.708 0L2.782 1.354a.5.5 0 0 0-.707 0l-.721.721a.5.5 0 0 0 0 .707l2.864 2.864a.5.5 0 0 1 0 .708L1.354 9.218a.5.5 0 0 0 0 .707l.721.721a.5.5 0 0 0 .707 0l2.864-2.864a.5.5 0 0 1 .708 0l2.864 2.864a.5.5 0 0 0 .707 0l.721-.721a.5.5 0 0 0 0-.707L7.782 6.354a.5.5 0 0 1 0-.708l2.864-2.864a.5.5 0 0 0 0-.707z"/>
</svg>
