<svg xmlns="http://www.w3.org/2000/svg" width="12" height="12" viewBox="0 0 12 12">
  <title>
    TreeCSharpCustomFunctionSelected
  </title>
  <path fill="#FFFFFF" fill-rule="evenodd" d="M5.102.45C5.598.2 6.394.196 6.898.45l4.204 2.1c.496.249.898.901.898 1.44v4.02c0 .546-.394 1.187-.898 1.44l-4.204 2.1c-.496.249-1.292.253-1.796 0L.898 9.45C.402 9.2 0 8.548 0 8.01V3.99c0-.546.394-1.187.898-1.44L5.102.45zM2 8v1h3V8H2zM1 5v3h1V5H1zm1-1v1h3V4H2zm5 2v1H6v1h1v1h1V8h1v1h1V8h1V7h-1V6h1V5h-1V4H9v1H8V4H7v1H6v1h1zm1 0h1v1H8V6z"/>
</svg>
