<svg xmlns="http://www.w3.org/2000/svg" width="12" height="12" viewBox="0 0 12 12">
  <title>
    TreeOracleSelected
  </title>
  <path fill="#FFFFFF" fill-rule="evenodd" d="M0 1.002C0 .45.456 0 1.002 0h9.996C11.55 0 12 .456 12 1.002v9.996C12 11.55 11.544 12 10.998 12H1.002A1.007 1.007 0 0 1 0 10.998V1.002zM2 6.5C2 7.89 3.123 9 4.51 9h2.98C8.889 9 10 7.88 10 6.5 10 5.11 8.877 4 7.49 4H4.51A2.498 2.498 0 0 0 2 6.5zm1 0C3 5.672 3.665 5 4.499 5H7.5C8.33 5 9 5.666 9 6.5 9 7.328 8.335 8 7.501 8H4.5A1.496 1.496 0 0 1 3 6.5z"/>
</svg>
