<svg xmlns="http://www.w3.org/2000/svg" width="12" height="12" viewBox="0 0 12 12">
  <title>
    TreeRoleHeader
  </title>
  <g fill="none" fill-rule="evenodd">
    <g transform="translate(5 2)">
      <path fill="#B3B3B3" d="M1.998 5h2.004C5.106 5 6 5.894 6 7.005V10H0V7.005C0 5.898.898 5 1.998 5z"/>
      <path fill="#FFFFFF" d="M1 7.5C1 6.672 1.679 6 2.5 6h1C4.327 6 5 6.666 5 7.5V9H1V7.5z"/>
      <circle cx="3" cy="2" r="2" fill="#B3B3B3"/>
      <circle cx="3" cy="2" r="1" fill="#FFFFFF"/>
    </g>
    <g fill="#808080" transform="translate(0 2)">
      <path d="M1.998 5h2.004C5.106 5 6 5.894 6 7.005V10H0V7.005C0 5.898.898 5 1.998 5z"/>
      <circle cx="3" cy="2" r="2"/>
    </g>
  </g>
</svg>
