<svg xmlns="http://www.w3.org/2000/svg" width="12" height="12" viewBox="0 0 12 12">
  <title>
    TreeGeneral
  </title>
  <path fill="#808080" fill-rule="evenodd" d="M7.955 6.371L5.629 4.045A2.93 2.93 0 0 0 4.995.856 2.938 2.938 0 0 0 2.173.097a.291.291 0 0 0-.131.488L3.808 2.35l-.183 1.274-1.274.183L.585 2.042a.291.291 0 0 0-.487.13 2.938 2.938 0 0 0 .759 2.823c.394.394.873.651 1.378.773.6.145 1.235.098 1.81-.14l2.327 2.327a2.93 2.93 0 0 0 .634 3.189 2.937 2.937 0 0 0 2.822.759.291.291 0 0 0 .13-.488L8.194 9.65 8.409 8.4l1.24-.207 1.767 1.766a.291.291 0 0 0 .487-.132 2.938 2.938 0 0 0-.759-2.821 2.93 2.93 0 0 0-3.189-.635z"/>
</svg>
