<svg xmlns="http://www.w3.org/2000/svg" width="12" height="12" viewBox="0 0 12 12">
  <title>
    TreeAssemblyGlobe
  </title>
  <g fill="none" fill-rule="evenodd">
    <path fill="#B3B3B3" d="M5.5 0a5.5 5.5 0 1 0 0 11 5.5 5.5 0 0 0 0-11zm.224 10.504c-.01 0-.024 0-.035.002v-2.14h1.748c-.393 1.166-1.012 1.98-1.713 2.138zM3.516 8.367h1.706v2.135h-.005c-.696-.164-1.31-.977-1.701-2.135zM.496 5.733h2.117c.016.78.112 1.511.274 2.167H1.102a4.986 4.986 0 0 1-.606-2.167zm6.941-3.1H5.69V.493c.01 0 .024 0 .035.003.7.157 1.32.972 1.713 2.137zm.14.467c.172.653.278 1.39.296 2.167H5.686V3.1h1.89zM5.217.498h.005v2.135H3.516C3.906 1.475 4.52.663 5.217.498zM5.222 3.1v2.167H3.08A9.366 9.366 0 0 1 3.376 3.1h1.846zM2.613 5.267H.496A4.977 4.977 0 0 1 1.102 3.1h1.785a9.935 9.935 0 0 0-.274 2.167zm.467.466h2.142V7.9H3.376a9.384 9.384 0 0 1-.296-2.167zM5.689 7.9V5.733h2.186A9.366 9.366 0 0 1 7.58 7.9h-1.89zm2.65-2.167h2.165A4.977 4.977 0 0 1 9.898 7.9H8.066a9.935 9.935 0 0 0 .274-2.167zm0-.466A9.935 9.935 0 0 0 8.067 3.1h1.832c.354.649.57 1.385.606 2.167H8.34zm1.27-2.634H7.935c-.254-.817-.618-1.488-1.053-1.948a5.017 5.017 0 0 1 2.725 1.948zM4.051.703c-.426.46-.783 1.124-1.035 1.93H1.392a5.034 5.034 0 0 1 2.66-1.93zm-2.66 7.664h1.625c.252.806.609 1.47 1.035 1.93a5.034 5.034 0 0 1-2.66-1.93zm5.49 1.948c.436-.46.8-1.133 1.054-1.95h1.672a4.998 4.998 0 0 1-2.725 1.95z"/>
    <path fill="#808080" d="M6 8h1v4H6V8zm2 0h3v4H8V8zm1 1h1v2H9V9zM2 8h3v4H2V8zm1 1h1v2H3V9zM0 8h1v4H0V8z"/>
  </g>
</svg>
