<svg xmlns="http://www.w3.org/2000/svg" width="12" height="12" viewBox="0 0 12 12">
  <title>
    TreeEmailPerson
  </title>
  <g fill="none" fill-rule="evenodd">
    <g transform="translate(0 2)">
      <path fill="#808080" d="M0 7.005C0 5.898.898 5 1.998 5h2.004C5.106 5 6 5.894 6 7.005V10H0V7.005z"/>
      <path fill="#DADADA" d="M1 7.5C1 6.672 1.679 6 2.5 6h1C4.327 6 5 6.666 5 7.5V9H1V7.5z"/>
      <circle cx="3" cy="2" r="2" fill="#808080"/>
      <circle cx="3" cy="2" r="1" fill="#DADADA"/>
    </g>
    <g transform="translate(4 7)">
      <rect width="8" height="5" fill="#6896ED"/>
      <polygon fill="#FFFFFF" points="1 2 4 3.5 7 2 7 4 1 4"/>
      <polygon fill="#FFFFFF" points="1 1 7 1 4 2.5"/>
    </g>
  </g>
</svg>
