<svg xmlns="http://www.w3.org/2000/svg" width="12" height="12" viewBox="0 0 12 12">
  <title>
    TreeServerEventGlobe
  </title>
  <path fill="#808080" fill-rule="evenodd" d="M6 0a6 6 0 1 0 0 12A6 6 0 0 0 6 0zm.245 11.459c-.012 0-.027 0-.04.002V9.127h1.908c-.428 1.271-1.104 2.16-1.868 2.332zm-2.41-2.332h1.861v2.33h-.005c-.759-.18-1.43-1.066-1.856-2.33zM.541 6.255h2.31c.017.85.122 1.648.298 2.363H1.202a5.439 5.439 0 0 1-.66-2.363zm7.572-3.382H6.206V.539c.012 0 .027 0 .039.002.764.172 1.44 1.06 1.868 2.332zm.152.509c.189.713.304 1.516.324 2.363H6.203V3.382h2.062zM5.691.544h.005v2.329h-1.86C4.26 1.609 4.931.723 5.69.543zm.005 2.838v2.363H3.36c.02-.847.135-1.653.323-2.363h2.013zM2.851 5.745H.54a5.43 5.43 0 0 1 .661-2.363H3.15a10.838 10.838 0 0 0-.298 2.363zm.509.51h2.336v2.363H3.683a10.237 10.237 0 0 1-.323-2.363zm2.846 2.363V6.255H8.59c-.02.847-.135 1.653-.323 2.363H6.206zm2.892-2.363h2.36a5.43 5.43 0 0 1-.66 2.363H8.799c.177-.715.282-1.514.299-2.363zm0-.51a10.838 10.838 0 0 0-.299-2.363h1.999c.386.708.622 1.511.66 2.363h-2.36zm1.384-2.872H8.657C8.38 1.98 7.984 1.249 7.51.747a5.473 5.473 0 0 1 2.973 2.126zM4.42.767c-.465.502-.854 1.226-1.129 2.106H1.518A5.491 5.491 0 0 1 4.42.767zm-2.902 8.36h1.773c.275.88.664 1.604 1.13 2.106a5.491 5.491 0 0 1-2.903-2.106zm5.99 2.126c.476-.502.872-1.237 1.15-2.128h1.824a5.453 5.453 0 0 1-2.973 2.128z"/>
</svg>
