<svg xmlns="http://www.w3.org/2000/svg" width="12" height="12" viewBox="0 0 12 12">
  <title>
    TreeFunctionSelected
  </title>
  <path fill="#FFFFFF" fill-rule="evenodd" d="M7.186.526a4.95 4.95 0 0 1-.022.2 1.261 1.261 0 0 1-.073.276.377.377 0 0 1-.057.102c-.021.025-.045.038-.07.038a.326.326 0 0 1-.111-.026 2.12 2.12 0 0 0-.365-.108A1.296 1.296 0 0 0 6.22.983c-.182 0-.337.027-.466.082a.85.85 0 0 0-.334.258 1.52 1.52 0 0 0-.234.44 4.318 4.318 0 0 0-.166.63l-.107.57h1.275a.14.14 0 0 1 .112.048c.027.032.04.084.04.156a.889.889 0 0 1-.012.146c-.008.05-.019.1-.032.149a.985.985 0 0 1-.047.14.68.68 0 0 1-.064.117.329.329 0 0 1-.08.082.152.152 0 0 1-.088.032H4.736L3.65 9.241c-.072.356-.169.664-.292.924-.122.26-.273.476-.45.647a1.691 1.691 0 0 1-.616.381 2.345 2.345 0 0 1-.787.124c-.19 0-.346-.015-.467-.045a.657.657 0 0 1-.225-.082.225.225 0 0 1-.038-.07.33.33 0 0 1-.013-.101c0-.017.003-.046.01-.086a4.084 4.084 0 0 1 .054-.267c.012-.048.027-.094.044-.136a.377.377 0 0 1 .057-.102.096.096 0 0 1 .076-.038.38.38 0 0 1 .086.01 3.102 3.102 0 0 0 .203.038c.045.006.1.01.168.01.178 0 .332-.028.46-.083.13-.055.24-.141.33-.257.092-.117.168-.264.23-.441.06-.178.117-.392.167-.642l1.041-5.192h-.812a.122.122 0 0 1-.098-.041c-.024-.028-.035-.08-.035-.156a1.465 1.465 0 0 1 .028-.273c.01-.05.025-.1.042-.146a.593.593 0 0 1 .063-.127.437.437 0 0 1 .08-.092.157.157 0 0 1 .104-.035h.8l.159-.793c.067-.347.165-.65.292-.911.127-.26.28-.475.46-.644.18-.17.387-.295.622-.378.235-.082.494-.124.777-.124a2.821 2.821 0 0 1 .575.06c.087.02.163.042.228.067.066.026.111.051.137.076a.19.19 0 0 1 .057.09.379.379 0 0 1 .019.12zM8.959 6.4l1.053 2.364c.021.05.03.092.024.126-.005.034-.028.062-.067.083a.474.474 0 0 1-.164.046c-.07.009-.16.013-.271.013-.1 0-.18-.002-.237-.008a.517.517 0 0 1-.134-.027c-.032-.012-.054-.028-.064-.048a.794.794 0 0 1-.033-.067l-.805-1.907-1.52 1.907a.594.594 0 0 1-.067.067.245.245 0 0 1-.1.046c-.043.01-.097.02-.164.026a2.526 2.526 0 0 1-.513-.002.331.331 0 0 1-.142-.046c-.03-.021-.043-.048-.037-.08a.326.326 0 0 1 .061-.124l2.01-2.385-.995-2.256a.262.262 0 0 1-.026-.126c.003-.034.022-.062.056-.083a.364.364 0 0 1 .153-.043c.068-.007.158-.01.269-.01.1 0 .179.002.236.007a.579.579 0 0 1 .132.024c.03.011.051.026.064.043a.36.36 0 0 1 .035.065L8.48 5.81l1.45-1.805a.966.966 0 0 1 .065-.06.27.27 0 0 1 .09-.045.707.707 0 0 1 .149-.027c.059-.005.137-.008.233-.008.108 0 .195.004.263.011.068.007.119.02.15.038.033.017.046.043.041.077-.005.034-.031.077-.078.127L8.96 6.4z"/>
</svg>
