<svg xmlns="http://www.w3.org/2000/svg" width="12" height="12" viewBox="0 0 12 12">
  <title>
    TreeGeneralNode
  </title>
  <g fill="#B3B3B3" fill-rule="evenodd">
    <path d="M10.35 4.624l-.302-.735s.705-1.624.642-1.687l-.933-.93c-.064-.064-1.655.677-1.655.677l-.734-.303S6.72 0 6.631 0H5.314c-.091 0-.691 1.65-.691 1.65l-.733.304s-1.624-.706-1.686-.643l-.932.932c-.064.064.677 1.656.677 1.656l-.303.734S0 5.28 0 5.368v1.318c0 .092 1.65.692 1.65.692l.303.733s-.705 1.623-.643 1.686l.933.932c.063.063 1.655-.678 1.655-.678l.734.304S5.28 12 5.369 12h1.317c.091 0 .692-1.65.692-1.65l.734-.304s1.621.706 1.684.644l.933-.932c.065-.065-.678-1.655-.678-1.655l.302-.734S12 6.719 12 6.63V5.314c0-.091-1.65-.69-1.65-.69zm-.423 1.332A3.93 3.93 0 0 1 6.002 9.88a3.93 3.93 0 0 1-3.925-3.923 3.929 3.929 0 0 1 3.925-3.92 3.927 3.927 0 0 1 3.925 3.92z"/>
    <circle cx="6" cy="6" r="1"/>
  </g>
</svg>
