<svg xmlns="http://www.w3.org/2000/svg" width="12" height="12" viewBox="0 0 12 12">
  <title>
    TreeFilterFunctionSelected
  </title>
  <g fill="#FFFFFF" fill-rule="evenodd">
    <path d="M7.186.526a4.95 4.95 0 0 1-.022.2 1.261 1.261 0 0 1-.073.276.377.377 0 0 1-.057.102c-.021.025-.045.038-.07.038a.326.326 0 0 1-.111-.026 2.12 2.12 0 0 0-.365-.108A1.296 1.296 0 0 0 6.22.983c-.182 0-.337.027-.466.082a.85.85 0 0 0-.334.258 1.52 1.52 0 0 0-.234.44 4.318 4.318 0 0 0-.166.63l-.107.57h1.275a.14.14 0 0 1 .112.048c.027.032.04.084.04.156a.889.889 0 0 1-.012.146c-.008.05-.019.1-.032.149a.985.985 0 0 1-.047.14.68.68 0 0 1-.064.117.329.329 0 0 1-.08.082.152.152 0 0 1-.088.032H4.736L3.65 9.241c-.072.356-.169.664-.292.924-.122.26-.273.476-.45.647a1.691 1.691 0 0 1-.616.381 2.345 2.345 0 0 1-.787.124c-.19 0-.346-.015-.467-.045a.657.657 0 0 1-.225-.082.225.225 0 0 1-.038-.07.33.33 0 0 1-.013-.101c0-.017.003-.046.01-.086a4.084 4.084 0 0 1 .054-.267c.012-.048.027-.094.044-.136a.377.377 0 0 1 .057-.102.096.096 0 0 1 .076-.038.38.38 0 0 1 .086.01 3.102 3.102 0 0 0 .203.038c.045.006.1.01.168.01.178 0 .332-.028.46-.083.13-.055.24-.141.33-.257.092-.117.168-.264.23-.441.06-.178.117-.392.167-.642l1.041-5.192h-.812a.122.122 0 0 1-.098-.041c-.024-.028-.035-.08-.035-.156a1.465 1.465 0 0 1 .028-.273c.01-.05.025-.1.042-.146a.593.593 0 0 1 .063-.127.437.437 0 0 1 .08-.092.157.157 0 0 1 .104-.035h.8l.159-.793c.067-.347.165-.65.292-.911.127-.26.28-.475.46-.644.18-.17.387-.295.622-.378.235-.082.494-.124.777-.124a2.821 2.821 0 0 1 .575.06c.087.02.163.042.228.067.066.026.111.051.137.076a.19.19 0 0 1 .057.09.379.379 0 0 1 .019.12z"/>
    <path fill-rule="nonzero" d="M9.182 8.216L9 10l-.182-1.784L7 6h4L9.182 8.216zM6 6.5L8 9v2h2V9l2-2.5V5H6v1.5z"/>
  </g>
</svg>
