<svg xmlns="http://www.w3.org/2000/svg" width="12" height="12" viewBox="0 0 12 12">
  <title>
    TreeCustomOptionText
  </title>
  <path fill="#808080" fill-rule="evenodd" d="M7.396 7.727H3.75L3.111 9.27c-.157.38-.236.663-.236.85a.5.5 0 0 0 .205.393c.136.113.432.187.885.22V11H1v-.267c.394-.072.648-.166.764-.28.236-.232.498-.7.785-1.407L5.86 1h.243l3.278 8.133c.264.653.503 1.078.719 1.272.215.195.515.304.899.328V11H7.285v-.267c.375-.019.628-.084.76-.194a.509.509 0 0 0 .198-.404c0-.212-.093-.546-.278-1.002l-.57-1.406zM7.2 7.193l-1.597-3.95-1.639 3.95h3.236z"/>
</svg>
