<svg xmlns="http://www.w3.org/2000/svg" width="24" height="24" viewBox="0 0 24 24">
  <title>
    UserPreferences
  </title>
  <path fill="#D5D5D5" fill-rule="evenodd" d="M12 21a9 9 0 1 0 0-18 9 9 0 0 0 0 18zm1.897-8.64l-2.257-2.257c.424-1.03.22-2.26-.616-3.095a2.851 2.851 0 0 0-2.739-.737.283.283 0 0 0-.127.473l1.714 1.714-.177 1.236-1.237.178-1.714-1.714a.283.283 0 0 0-.473.127 2.851 2.851 0 0 0 .737 2.74c.382.381.847.632 1.338.75.581.14 1.199.095 1.757-.135l2.257 2.257a2.844 2.844 0 0 0 .616 3.095 2.851 2.851 0 0 0 2.739.737.283.283 0 0 0 .127-.473l-1.714-1.714.21-1.213 1.204-.201 1.714 1.714a.283.283 0 0 0 .473-.127 2.851 2.851 0 0 0-.737-2.74 2.844 2.844 0 0 0-3.095-.615z"/>
</svg>
