<svg xmlns="http://www.w3.org/2000/svg" width="24" height="24" viewBox="0 0 24 24">
  <title>
    VizMenu
  </title>
  <path fill="#777777" fill-rule="evenodd" d="M5 13.99c0-.546.443-.99.999-.99h1.002a1 1 0 0 1 .999.99v4.02c0 .546-.443.99-.999.99H5.999A1 1 0 0 1 5 18.01v-4.02zm5-3.995c0-.55.443-.995.999-.995h1.002c.552 0 .999.456.999.995v8.01c0 .55-.443.995-.999.995h-1.002c-.552 0-.999-.456-.999-.995v-8.01zm5-3.988A1 1 0 0 1 15.999 5h1.002c.552 0 .999.45.999 1.007v11.986A1 1 0 0 1 17.001 19h-1.002c-.552 0-.999-.45-.999-1.007V6.007z"/>
</svg>
